<?xml version="1.0" encoding="UTF-8"?>
<svg version="1.1" xmlns="http://www.w3.org/2000/svg" width="137" height="136">
<path d="M0 0 C45.21 0 90.42 0 137 0 C137 44.88 137 89.76 137 136 C91.79 136 46.58 136 0 136 C0 91.12 0 46.24 0 0 Z " fill="#FEFEFD" transform="translate(0,0)"/>
<path d="M0 0 C1.00219528 1.03835697 1.97976131 2.10112032 2.9296875 3.1875 C4.32934487 4.83891705 4.32934487 4.83891705 6.890625 6.1953125 C10.01195224 8.08453688 11.45831789 9.41982208 13.265625 12.6328125 C14.81352431 24.11784321 12.18859718 35.78870891 6.265625 45.6328125 C5.935625 45.9628125 5.605625 46.2928125 5.265625 46.6328125 C5.1728125 48.3653125 5.1728125 48.3653125 5.078125 50.1328125 C4.49818412 55.46826858 1.75218598 59.63760204 -1.734375 63.6328125 C-2.394375 63.6328125 -3.054375 63.6328125 -3.734375 63.6328125 C-3.734375 64.2928125 -3.734375 64.9528125 -3.734375 65.6328125 C-4.394375 65.6328125 -5.054375 65.6328125 -5.734375 65.6328125 C-5.734375 66.2928125 -5.734375 66.9528125 -5.734375 67.6328125 C-6.724375 68.1278125 -6.724375 68.1278125 -7.734375 68.6328125 C-7.38375 69.1484375 -7.033125 69.6640625 -6.671875 70.1953125 C-5.37073732 73.57827047 -6.20880548 76.05531512 -6.734375 79.6328125 C-6.87384738 82.34270424 -6.87476037 85.04485848 -6.859375 87.7578125 C-6.86324219 88.44746094 -6.86710937 89.13710937 -6.87109375 89.84765625 C-6.8657982 92.61722807 -6.81441026 95.25039514 -6.24584961 97.96704102 C-5.66133307 101.01350215 -5.52081853 103.92715742 -5.41796875 107.02734375 C-5.37986084 108.11120361 -5.34175293 109.19506348 -5.30249023 110.31176758 C-5.23783569 112.35787231 -5.23783569 112.35787231 -5.171875 114.4453125 C-4.9553125 120.973125 -4.9553125 120.973125 -4.734375 127.6328125 C-21.234375 127.6328125 -37.734375 127.6328125 -54.734375 127.6328125 C-57.704375 120.7028125 -57.704375 120.7028125 -60.734375 113.6328125 C-63.51571231 108.95578459 -63.51571231 108.95578459 -66.4140625 104.3515625 C-67.93384546 101.22206859 -67.9870236 99.06883345 -67.734375 95.6328125 C-68.724375 95.3028125 -69.714375 94.9728125 -70.734375 94.6328125 C-71.921875 92.0703125 -71.921875 92.0703125 -72.734375 89.6328125 C-73.394375 89.6328125 -74.054375 89.6328125 -74.734375 89.6328125 C-75.95414829 87.19326592 -75.93591313 85.47975401 -75.984375 82.7578125 C-76.01015625 81.89414063 -76.0359375 81.03046875 -76.0625 80.140625 C-75.67127673 77.15056147 -74.80511311 75.79401975 -72.734375 73.6328125 C-72.074375 73.6328125 -71.414375 73.6328125 -70.734375 73.6328125 C-70.734375 72.6428125 -70.734375 71.6528125 -70.734375 70.6328125 C-69.744375 70.6328125 -68.754375 70.6328125 -67.734375 70.6328125 C-67.734375 69.9728125 -67.734375 69.3128125 -67.734375 68.6328125 C-67.074375 68.6328125 -66.414375 68.6328125 -65.734375 68.6328125 C-65.734375 69.2928125 -65.734375 69.9528125 -65.734375 70.6328125 C-65.1775 70.7153125 -64.620625 70.7978125 -64.046875 70.8828125 C-60.8262353 71.92734429 -59.11554471 73.20502935 -56.734375 75.6328125 C-56.21461694 78.48536706 -56.01815821 80.60977335 -56.109375 83.4453125 C-56.11904297 84.16074219 -56.12871094 84.87617187 -56.13867188 85.61328125 C-56.38075488 91.48782887 -57.6381581 94.5365956 -61.734375 98.6328125 C-59.754375 98.1378125 -59.754375 98.1378125 -57.734375 97.6328125 C-57.074375 94.9928125 -56.414375 92.3528125 -55.734375 89.6328125 C-55.074375 89.6328125 -54.414375 89.6328125 -53.734375 89.6328125 C-53.404375 91.2828125 -53.074375 92.9328125 -52.734375 94.6328125 C-52.074375 94.6328125 -51.414375 94.6328125 -50.734375 94.6328125 C-49.414375 97.6028125 -48.094375 100.5728125 -46.734375 103.6328125 C-44.27865156 94.73509827 -42.30153076 86.40502109 -42.10546875 77.109375 C-41.92177734 75.88347656 -41.92177734 75.88347656 -41.734375 74.6328125 C-37.41650423 71.75423199 -32.84820456 71.41698446 -27.7890625 70.51171875 C-26.78101563 70.22167969 -25.77296875 69.93164062 -24.734375 69.6328125 C-24.239375 68.1478125 -24.239375 68.1478125 -23.734375 66.6328125 C-21.171875 64.9453125 -21.171875 64.9453125 -18.734375 63.6328125 C-20.74890502 60.42448691 -22.36879001 57.95269937 -25.234375 55.4453125 C-28.25512722 52.04696625 -29.27738748 48.94684808 -30.6953125 44.67578125 C-31.77783223 41.5055449 -33.03859009 38.46078202 -34.359375 35.3828125 C-35.70842089 32.19939323 -36.97561801 29.10135978 -37.859375 25.7578125 C-38.63048467 22.54533119 -38.63048467 22.54533119 -40.421875 19.5703125 C-42.03196285 15.96678255 -42.0257967 14.3456499 -40.734375 10.6328125 C-37.82060223 7.63334053 -34.75255817 6.07913481 -30.890625 4.5546875 C-27.0499946 2.91267885 -23.3908047 0.88758877 -19.69921875 -1.0625 C-13.35493115 -3.8543209 -5.74116898 -4.52569627 0 0 Z " fill="#A09A54" transform="translate(80.734375,8.3671875)"/>
<path d="M0 0 C21.12 0 42.24 0 64 0 C65.32 1.32 66.64 2.64 68 4 C66.68 4.33 65.36 4.66 64 5 C64 5.66 64 6.32 64 7 C62.20833333 7.89583333 60.41666667 8.79166667 58.625 9.6875 C56.99304687 10.50734375 56.99304687 10.50734375 55.328125 11.34375 C53.24273307 12.38155068 51.1499567 13.40478252 49.046875 14.40625 C48.16515625 14.8290625 47.2834375 15.251875 46.375 15.6875 C45.57835937 16.06261719 44.78171875 16.43773438 43.9609375 16.82421875 C41.69600034 17.99195244 41.69600034 17.99195244 40 21 C40.21507006 24.29774094 40.68607291 26.49498686 42.4375 29.3125 C43.91277363 31.84997065 44.38975377 33.4281288 44.9375 36.25 C45.76025639 40.37058161 47.14119349 43.84067729 48.94921875 47.62109375 C50.08105212 50.18349718 50.86326219 52.76154984 51.6875 55.4375 C53.94479419 61.90780075 58.18495401 66.25697393 63 71 C57.89253172 76.29663377 53.90631114 79.36096531 46.6875 81.25 C44.80611328 81.75273437 44.80611328 81.75273437 42.88671875 82.265625 C41.45779297 82.62914063 41.45779297 82.62914063 40 83 C39.96132812 84.12921875 39.96132812 84.12921875 39.921875 85.28125 C39.56526549 91.95957356 38.66304174 98.27175609 37.0625 104.75 C36.89266602 105.45318359 36.72283203 106.15636719 36.54785156 106.88085938 C36.10067394 108.60653911 35.55804315 110.30691814 35 112 C34.01 112.495 34.01 112.495 33 113 C32.01 109.7 31.02 106.4 30 103 C29.34 103 28.68 103 28 103 C27.67 101.35 27.34 99.7 27 98 C26.34 98 25.68 98 25 98 C25.061875 98.9075 25.12375 99.815 25.1875 100.75 C24.98103345 104.32875347 24.65315971 105.62130509 22 108 C19.3125 108.25 19.3125 108.25 17 108 C17.99 107.505 17.99 107.505 19 107 C19.70151152 105.6846659 20.36525925 104.34882408 21 103 C21.66 102.01 22.32 101.02 23 100 C23.27414795 97.30180706 23.41575257 94.76159812 23.4375 92.0625 C23.47037109 91.34642578 23.50324219 90.63035156 23.53710938 89.89257812 C23.57636333 86.04212234 23.36415788 84.37996439 20.66015625 81.55859375 C18.03274249 79.89606009 18.03274249 79.89606009 15 79 C15 78.34 15 77.68 15 77 C14.34 77 13.68 77 13 77 C13 77.66 13 78.32 13 79 C12.01 79 11.02 79 10 79 C10 79.99 10 80.98 10 82 C9.34 82 8.68 82 8 82 C5.85663839 85.4766338 5.78722374 88.21229195 5.875 92.25 C5.89304687 93.32765625 5.91109375 94.4053125 5.9296875 95.515625 C5.95289063 96.33546875 5.97609375 97.1553125 6 98 C6.66 98 7.32 98 8 98 C8.2475 98.804375 8.495 99.60875 8.75 100.4375 C9.72238859 103.171081 9.72238859 103.171081 12.125 103.8125 C13.053125 103.9053125 13.053125 103.9053125 14 104 C13.89945313 104.80308594 13.79890625 105.60617188 13.6953125 106.43359375 C14.12211939 111.42942307 16.34217459 114.80972565 18.875 119.0625 C26 131.28676471 26 131.28676471 26 136 C17.42 136 8.84 136 0 136 C0 91.12 0 46.24 0 0 Z " fill="#FEFDFC" transform="translate(0,0)"/>
<path d="M0 0 C1.27310312 0.93441535 2.543388 1.87267111 3.8125 2.8125 C4.52019531 3.33457031 5.22789063 3.85664062 5.95703125 4.39453125 C8 6 8 6 9.578125 7.62890625 C14.43211379 12.3095383 23.73851768 11.60929995 30 12 C30.66609217 13.42822553 31.30643284 14.86845665 31.9375 16.3125 C32.29714844 17.11300781 32.65679687 17.91351563 33.02734375 18.73828125 C36.0616143 28.91344555 35.2894202 40.35777056 35.51757812 50.88085938 C35.70116331 57.26477444 36.25232095 62.86543426 38 69 C38 70.32 38 71.64 38 73 C22.16 73 6.32 73 -10 73 C-10.5661048 44.8362861 -10.5661048 44.8362861 -6.52587891 30.93847656 C-5.6095454 27.56071982 -4.99642991 24.12964229 -4.375 20.6875 C-4.1378125 19.39070313 -3.900625 18.09390625 -3.65625 16.7578125 C-2.86598262 12.23259097 -2.12635452 7.70071411 -1.4296875 3.16015625 C-1 1 -1 1 0 0 Z " fill="#A89A3C" transform="translate(88,63)"/>
<path d="M0 0 C0.66 0 1.32 0 2 0 C2 0.66 2 1.32 2 2 C2.8353125 2.12375 2.8353125 2.12375 3.6875 2.25 C6.9081397 3.29453179 8.61883029 4.57221685 11 7 C11.51975806 9.85255456 11.71621679 11.97696085 11.625 14.8125 C11.61533203 15.52792969 11.60566406 16.24335937 11.59570312 16.98046875 C11.35362012 22.85501637 10.0962169 25.9037831 6 30 C7.32 29.67 8.64 29.34 10 29 C10.66 26.36 11.32 23.72 12 21 C12.66 21 13.32 21 14 21 C14.33 22.65 14.66 24.3 15 26 C15.66 26 16.32 26 17 26 C18.32 28.97 19.64 31.94 21 35 C21.66 33.35 22.32 31.7 23 30 C23.66 30.66 24.32 31.32 25 32 C27.10820797 31.6814823 27.10820797 31.6814823 29 31 C29.04898438 30.30132812 29.09796875 29.60265625 29.1484375 28.8828125 C29.22320312 27.97273438 29.29796875 27.06265625 29.375 26.125 C29.44460937 25.22007813 29.51421875 24.31515625 29.5859375 23.3828125 C30 21 30 21 32 19 C32 20.65 32 22.3 32 24 C32.66 24 33.32 24 34 24 C34 20.04 34 16.08 34 12 C33.34 12 32.68 12 32 12 C32 11.01 32 10.02 32 9 C34.64 8.34 37.28 7.68 40 7 C39.34 10.3 38.68 13.6 38 17 C39.32 17 40.64 17 42 17 C42 17.66 42 18.32 42 19 C42.66 19 43.32 19 44 19 C44 21.31 44 23.62 44 26 C42.02 26.66 40.04 27.32 38 28 C38.144375 29.06476563 38.28875 30.12953125 38.4375 31.2265625 C39.65272873 40.58555665 40.19902769 49.54618488 40 59 C31.09 59 22.18 59 13 59 C12.154375 56.9375 11.30875 54.875 10.4375 52.75 C7.91875371 46.70841741 4.89069683 41.22116049 1.3203125 35.71875 C-0.19947046 32.58925609 -0.2526486 30.43602095 0 27 C-0.99 26.67 -1.98 26.34 -3 26 C-4.1875 23.4375 -4.1875 23.4375 -5 21 C-5.66 21 -6.32 21 -7 21 C-8.21977329 18.56045342 -8.20153813 16.84694151 -8.25 14.125 C-8.27578125 13.26132813 -8.3015625 12.39765625 -8.328125 11.5078125 C-7.93690173 8.51774897 -7.07073811 7.16120725 -5 5 C-4.34 5 -3.68 5 -3 5 C-3 4.01 -3 3.02 -3 2 C-2.01 2 -1.02 2 0 2 C0 1.34 0 0.68 0 0 Z " fill="#9D9338" transform="translate(13,77)"/>
<path d="M0 0 C1.00219528 1.03835697 1.97976131 2.10112032 2.9296875 3.1875 C4.32934487 4.83891705 4.32934487 4.83891705 6.890625 6.1953125 C10.01195224 8.08453688 11.45831789 9.41982208 13.265625 12.6328125 C14.27380626 20.11326852 13.23090939 28.37824418 11.265625 35.6328125 C10.275625 36.1278125 10.275625 36.1278125 9.265625 36.6328125 C8.770625 34.6528125 8.770625 34.6528125 8.265625 32.6328125 C7.6675 32.5915625 7.069375 32.5503125 6.453125 32.5078125 C4.265625 31.6328125 4.265625 31.6328125 2.515625 28.5703125 C2.103125 27.6009375 1.690625 26.6315625 1.265625 25.6328125 C0.275625 26.1278125 0.275625 26.1278125 -0.734375 26.6328125 C-0.734375 25.9728125 -0.734375 25.3128125 -0.734375 24.6328125 C-1.724375 24.3028125 -2.714375 23.9728125 -3.734375 23.6328125 C-5.421875 20.5703125 -5.421875 20.5703125 -6.734375 17.6328125 C-7.25515625 17.95507812 -7.7759375 18.27734375 -8.3125 18.609375 C-11.43948701 19.93077919 -14.0969491 19.91166286 -17.484375 20.0078125 C-23.63340128 20.34799871 -27.52815884 21.40495848 -32.734375 24.6328125 C-32.734375 28.2628125 -32.734375 31.8928125 -32.734375 35.6328125 C-35.76476435 32.60242315 -36.09686146 32.14930138 -36.734375 28.2578125 C-37.46514711 24.45656935 -38.6838913 21.93141671 -40.734375 18.6328125 C-41.734375 15.6328125 -41.734375 15.6328125 -41.734375 12.6328125 C-37.8120767 6.8220002 -30.88472939 4.54403356 -24.734375 1.6328125 C-23.27436759 0.86515469 -21.81576597 0.09480943 -20.359375 -0.6796875 C-13.81693748 -3.72530496 -6.07626769 -4.78985065 0 0 Z " fill="#753713" transform="translate(80.734375,8.3671875)"/>
<path d="M0 0 C0.26554687 0.5878125 0.53109375 1.175625 0.8046875 1.78125 C2.3765364 4.69893031 4.4872983 6.82873505 6.7578125 9.21875 C8 11 8 11 8 15 C7.01 14.67 6.02 14.34 5 14 C3.33541327 13.90691456 1.66718003 13.87003815 0 13.875 C-0.86625 13.87242188 -1.7325 13.86984375 -2.625 13.8671875 C-5.15011695 13.90405795 -5.15011695 13.90405795 -8 15 C-8.33 15.66 -8.66 16.32 -9 17 C-7.68 17 -6.36 17 -5 17 C-5 17.99 -5 18.98 -5 20 C-3.68 19.67 -2.36 19.34 -1 19 C-0.67 19.66 -0.34 20.32 0 21 C1.32 21 2.64 21 4 21 C4.33 20.34 4.66 19.68 5 19 C6.70097842 21.60149641 7.01268885 22.84773377 6.75 26 C6 29 6 29 4 33 C-1.94 33 -7.88 33 -14 33 C-14 33.66 -14 34.32 -14 35 C-13.236875 34.79375 -12.47375 34.5875 -11.6875 34.375 C-9 34 -9 34 -6 36 C-5.505 36.495 -5.505 36.495 -5 37 C-4.34 36.34 -3.68 35.68 -3 35 C-1.68 35 -0.36 35 1 35 C0.63774912 41.39976553 0.63774912 41.39976553 -2.125 44 C-5.91476998 45.31818086 -8.16245608 45.13705005 -12 44 C-13.6875 41.4375 -13.6875 41.4375 -15 39 C-16.32 39 -17.64 39 -19 39 C-24.07356305 29.57480383 -29.29721997 19.01207032 -27 8 C-21.18635476 2.57393111 -14.91899071 2.75309418 -7.34765625 2.37890625 C-4.32427364 2.03670308 -2.54999393 1.57856767 0 0 Z " fill="#EDB990" transform="translate(74,25)"/>
<path d="M0 0 C1.98 0 3.96 0 6 0 C9.28395798 7.04141688 10.76009247 13.24662494 11 21 C11.02835938 21.88558594 11.05671875 22.77117187 11.0859375 23.68359375 C11.12625688 26.46159918 11.08178833 29.22291443 11 32 C10.95746094 33.73830078 10.95746094 33.73830078 10.9140625 35.51171875 C10.85992187 36.68347656 10.80578125 37.85523438 10.75 39.0625 C10.68039063 40.68865234 10.68039063 40.68865234 10.609375 42.34765625 C10 45 10 45 8.21875 46.36328125 C5.9311747 47.01975092 4.12265646 47.20408855 1.75 47.125 C0.5125 47.08375 -0.725 47.0425 -2 47 C-2 43.7 -2 40.4 -2 37 C-3.32 36.67 -4.64 36.34 -6 36 C-6.57759916 28.65623924 -7.14738028 21.36901413 -7 14 C-7.66 17.3 -8.32 20.6 -9 24 C-9.33 24 -9.66 24 -10 24 C-10.02705308 21.58325776 -10.04686438 19.1668206 -10.0625 16.75 C-10.07087891 16.06808594 -10.07925781 15.38617188 -10.08789062 14.68359375 C-10.10428392 11.30657446 -10.05628768 8.22708361 -9 5 C-7.68 4.67 -6.36 4.34 -5 4 C-5 3.34 -5 2.68 -5 2 C-3.35 1.67 -1.7 1.34 0 1 C0 0.67 0 0.34 0 0 Z " fill="#ACA03D" transform="translate(112,75)"/>
<path d="M0 0 C0.66 0 1.32 0 2 0 C2 0.66 2 1.32 2 2 C2.8353125 2.12375 2.8353125 2.12375 3.6875 2.25 C6.9081397 3.29453179 8.61883029 4.57221685 11 7 C11.51975806 9.85255456 11.71621679 11.97696085 11.625 14.8125 C11.61533203 15.52792969 11.60566406 16.24335937 11.59570312 16.98046875 C11.35362012 22.85501637 10.0962169 25.9037831 6 30 C7.32 29.67 8.64 29.34 10 29 C10.66 26.36 11.32 23.72 12 21 C12.66 21 13.32 21 14 21 C14.33 22.65 14.66 24.3 15 26 C15.66 26 16.32 26 17 26 C20.5632323 33.41853281 24.01832078 40.98320678 26 49 C25.505 49.99 25.505 49.99 25 51 C22.9375 51.625 22.9375 51.625 21 52 C21 51.01 21 50.02 21 49 C20.67 48.01 20.34 47.02 20 46 C19.64456573 43.66993089 19.3086247 41.33672984 19 39 C18.34 39 17.68 39 17 39 C16.7525 37.88625 16.505 36.7725 16.25 35.625 C15.38994661 31.95384802 15.38994661 31.95384802 12.875 30.5625 C12.25625 30.376875 11.6375 30.19125 11 30 C10.67 31.32 10.34 32.64 10 34 C6.7 33.67 3.4 33.34 0 33 C0 31.02 0 29.04 0 27 C-0.99 26.67 -1.98 26.34 -3 26 C-4.1875 23.4375 -4.1875 23.4375 -5 21 C-5.66 21 -6.32 21 -7 21 C-8.21977329 18.56045342 -8.20153813 16.84694151 -8.25 14.125 C-8.27578125 13.26132813 -8.3015625 12.39765625 -8.328125 11.5078125 C-7.93690173 8.51774897 -7.07073811 7.16120725 -5 5 C-4.34 5 -3.68 5 -3 5 C-3 4.01 -3 3.02 -3 2 C-2.01 2 -1.02 2 0 2 C0 1.34 0 0.68 0 0 Z " fill="#C39169" transform="translate(13,77)"/>
<path d="M0 0 C0.66 0.33 1.32 0.66 2 1 C1.98839844 2.00160156 1.97679688 3.00320312 1.96484375 4.03515625 C1.95545602 5.37760228 1.94635688 6.72005036 1.9375 8.0625 C1.92589844 9.37347656 1.91429688 10.68445313 1.90234375 12.03515625 C1.99547665 15.8163519 2.38551274 19.27920707 3 23 C3.99 23.33 4.98 23.66 6 24 C6.22786458 26.01822917 6.45572917 28.03645833 6.68359375 30.0546875 C6.91292961 32.07404316 6.91292961 32.07404316 8 34 C11.12290635 33.51421457 13.99580359 33.0013988 17 32 C17.33 27.71 17.66 23.42 18 19 C18.33 19 18.66 19 19 19 C19.04898438 20.134375 19.09796875 21.26875 19.1484375 22.4375 C19.2235414 23.95835398 19.29908584 25.47918625 19.375 27 C19.4059375 27.74378906 19.436875 28.48757812 19.46875 29.25390625 C19.66790908 33.0711219 20.06530971 36.60983507 21.0390625 40.3125 C22 44 22 44 22 48 C12.1 48 2.2 48 -8 48 C-7.67 46.35 -7.34 44.7 -7 43 C-5.02 43.33 -3.04 43.66 -1 44 C-1 42.68 -1 41.36 -1 40 C-1.66 40 -2.32 40 -3 40 C-3 39.34 -3 38.68 -3 38 C-3.66 38 -4.32 38 -5 38 C-5.66 36.02 -6.32 34.04 -7 32 C-5.68 32 -4.36 32 -3 32 C-3 22.43 -3 12.86 -3 3 C-2.34 3 -1.68 3 -1 3 C-0.67 2.01 -0.34 1.02 0 0 Z " fill="#94852D" transform="translate(104,88)"/>
<path d="M0 0 C1.35439668 2.70879335 1.06501451 5.00933268 1 8 C1.66 8.33 2.32 8.66 3 9 C2.69964844 9.81597656 2.39929688 10.63195312 2.08984375 11.47265625 C0.86193787 15.44684626 0.19018204 19.33485023 -0.4375 23.4375 C-3.81925385 44.56749633 -3.81925385 44.56749633 -6.05078125 51.0546875 C-7.74426903 56.82154787 -7.474983 62.97744973 -7.625 68.9375 C-7.68300781 70.82178711 -7.68300781 70.82178711 -7.7421875 72.74414062 C-7.83603217 75.82928426 -7.92172316 78.91442865 -8 82 C-8.66 82 -9.32 82 -10 82 C-10.75398572 78.59332769 -11.15901178 75.36008976 -11.28125 71.875 C-11.31863281 70.92109375 -11.35601562 69.9671875 -11.39453125 68.984375 C-11.46484375 66.99479167 -11.53515625 65.00520833 -11.60546875 63.015625 C-11.64285156 62.06171875 -11.68023437 61.1078125 -11.71875 60.125 C-11.74904297 59.26132813 -11.77933594 58.39765625 -11.81054688 57.5078125 C-12.00475666 54.93703556 -12.48686255 52.52381933 -13 50 C-13.09357357 47.36342714 -13.13977686 44.760207 -13.125 42.125 C-13.12886719 41.44308594 -13.13273437 40.76117188 -13.13671875 40.05859375 C-13.1302396 36.65704066 -12.93044897 33.52657334 -12.43359375 30.14453125 C-11.9807999 26.86075603 -12.17055318 25.69036297 -14 23 C-13.01 22.67 -12.02 22.34 -11 22 C-11 21.34 -11 20.68 -11 20 C-10.34 20 -9.68 20 -9 20 C-9 19.34 -9 18.68 -9 18 C-8.34 18 -7.68 18 -7 18 C-6.731875 17.443125 -6.46375 16.88625 -6.1875 16.3125 C-5 14 -5 14 -3.4375 11.75 C-1.54027188 8.12052012 -1.40654422 5.06544217 -1 1 C-0.67 0.67 -0.34 0.34 0 0 Z " fill="#F1EDD9" transform="translate(86,54)"/>
<path d="M0 0 C2.875 -0.125 2.875 -0.125 6 0 C6.66 0.66 7.32 1.32 8 2 C7.72426215 4.34083835 7.3791402 6.67367065 7 9 C6.85500738 11.70963269 6.85961465 14.41205019 6.875 17.125 C6.87113281 17.81464844 6.86726563 18.50429687 6.86328125 19.21484375 C6.8685768 21.98441557 6.91996474 24.61758264 7.48852539 27.33422852 C8.07304193 30.38068965 8.21355647 33.29434492 8.31640625 36.39453125 C8.37924805 38.19760742 8.37924805 38.19760742 8.44335938 40.03710938 C8.48267578 41.28298828 8.52199219 42.52886719 8.5625 43.8125 C8.60568359 45.07771484 8.64886719 46.34292969 8.69335938 47.64648438 C8.7992447 50.76421889 8.90132405 53.88203035 9 57 C5.37 57 1.74 57 -2 57 C-2.20117437 46.29305283 -2.14836019 35.80570199 -0.71142578 25.17822266 C0.84638427 15.68142099 0.84638427 15.68142099 -2 7 C-1.67873872 4.36565746 -1.18644952 2.37289903 0 0 Z " fill="#8D442D" transform="translate(67,79)"/>
<path d="M0 0 C1.32 0.99 2.64 1.98 4 3 C3.74863281 3.92232422 3.74863281 3.92232422 3.4921875 4.86328125 C3.28851563 5.67152344 3.08484375 6.47976562 2.875 7.3125 C2.56175781 8.51326172 2.56175781 8.51326172 2.2421875 9.73828125 C1.72572666 12.28207233 1.72572666 12.28207233 4 15 C4.66479848 20.7357533 3.80126131 26.61739299 3.0625 32.3125 C1.86490603 42.18684181 1.39405444 52.06568011 1 62 C-2.3 62 -5.6 62 -9 62 C-5.17669548 24.97323803 -5.17669548 24.97323803 -3.375 13.5625 C-3.26438232 12.8511792 -3.15376465 12.1398584 -3.03979492 11.40698242 C-2.37850685 7.45447294 -1.36235547 3.76685465 0 0 Z " fill="#ECE9EB" transform="translate(64,74)"/>
<path d="M0 0 C0.26554687 0.5878125 0.53109375 1.175625 0.8046875 1.78125 C2.3765364 4.69893031 4.4872983 6.82873505 6.7578125 9.21875 C8 11 8 11 8 15 C7.01 14.67 6.02 14.34 5 14 C-0.04936467 13.70901966 -5.08614397 13.68963839 -10 15 C-10.09688221 20.44693314 -10.12862175 25.63904667 -9 31 C-9.99 31 -10.98 31 -12 31 C-12.04898438 30.39671875 -12.09796875 29.7934375 -12.1484375 29.171875 C-12.22320312 28.37265625 -12.29796875 27.5734375 -12.375 26.75 C-12.44460937 25.96109375 -12.51421875 25.1721875 -12.5859375 24.359375 C-13.02064083 21.88238624 -13.70495413 20.14742151 -15 18 C-17.99571381 15.93399048 -20.41394196 15.72414938 -24 16 C-24.99 16.33 -25.98 16.66 -27 17 C-27.35467201 13.92617594 -27.52233194 11.06012653 -27 8 C-21.0112011 2.6766232 -15.00589904 2.75738933 -7.34765625 2.37890625 C-4.32427364 2.03670308 -2.54999393 1.57856767 0 0 Z " fill="#EEC19D" transform="translate(74,25)"/>
<path d="M0 0 C1.27310312 0.93441535 2.543388 1.87267111 3.8125 2.8125 C4.52019531 3.33457031 5.22789063 3.85664062 5.95703125 4.39453125 C7.78531393 5.83128877 9.39896688 7.31815763 11 9 C10.01 9.495 10.01 9.495 9 10 C9 11.65 9 13.3 9 15 C8.01 15.33 7.02 15.66 6 16 C6 14.35 6 12.7 6 11 C4.04783565 12.95216435 3.15173355 14.53199953 2 17 C1.875 10.25 1.875 10.25 3 8 C2.34 8 1.68 8 1 8 C0.87882812 8.92941406 0.75765625 9.85882813 0.6328125 10.81640625 C-0.9034288 22.14914016 -0.9034288 22.14914016 -2.1875 26.0625 C-3.05019118 29.18146043 -2.92904009 30.93416769 -2 34 C-0.68 34 0.64 34 2 34 C2 35.32 2 36.64 2 38 C3.485 37.505 3.485 37.505 5 37 C3.20175075 42.80972836 1.32082002 47.67917998 -3 52 C-4.19027984 54.59915538 -4.19027984 54.59915538 -5 57 C-6.32 57 -7.64 57 -9 57 C-11.15527946 50.53416161 -9.86812053 44.39800588 -8.1875 38 C-5.32398859 26.49132658 -3.22847242 14.88381585 -1.4296875 3.16015625 C-1 1 -1 1 0 0 Z " fill="#B9AD4D" transform="translate(88,63)"/>
<path d="M0 0 C0.66 0.33 1.32 0.66 2 1 C1.69012383 3.25036286 1.37700182 5.50027894 1.0625 7.75 C0.80146484 9.62945312 0.80146484 9.62945312 0.53515625 11.546875 C0.13950662 14.09982593 -0.30446422 16.5186291 -1 19 C-1.99 19 -2.98 19 -4 19 C-4 18.34 -4 17.68 -4 17 C-5.32 17 -6.64 17 -8 17 C-8.07427838 13.65747276 -8.06546953 11.1964086 -7 8 C-9.31 8.33 -11.62 8.66 -14 9 C-14 9.99 -14 10.98 -14 12 C-13.34 12 -12.68 12 -12 12 C-11.23826608 16.3164922 -10.83936396 19.74433453 -12 24 C-12.66 24 -13.32 24 -14 24 C-14.33 23.01 -14.66 22.02 -15 21 C-15.08636719 21.69867188 -15.17273437 22.39734375 -15.26171875 23.1171875 C-15.68204824 25.83968863 -16.13743453 28.38196209 -17 31 C-19.625 32.625 -19.625 32.625 -22 33 C-23.0891698 28.64332082 -22.78963603 25.70430502 -21.53515625 21.42578125 C-20.61617588 17.26018409 -20.59435644 13.01081454 -20.44140625 8.7578125 C-20.29574219 7.84773438 -20.15007813 6.93765625 -20 6 C-16.69001895 3.79334596 -14.17978564 3.21737905 -10.3125 2.375 C-8.54326172 1.98441406 -8.54326172 1.98441406 -6.73828125 1.5859375 C-5.38283203 1.29589844 -5.38283203 1.29589844 -4 1 C-4 1.66 -4 2.32 -4 3 C-2.68 2.01 -1.36 1.02 0 0 Z " fill="#B8AC4A" transform="translate(59,77)"/>
<path d="M0 0 C2.475 0.99 2.475 0.99 5 2 C5.33 4.31 5.66 6.62 6 9 C6.66 9 7.32 9 8 9 C10.51351351 16.37297297 10.51351351 16.37297297 11 19 C10.67 19.33 10.34 19.66 10 20 C9.81886086 23.35107416 10.1700608 25.68024318 11 29 C8.03 29 5.06 29 2 29 C1.63648438 28.10539062 1.27296875 27.21078125 0.8984375 26.2890625 C-1.94217615 19.45702248 -4.85558517 13.16272387 -8.99609375 6.98828125 C-9.32738281 6.33214844 -9.65867187 5.67601563 -10 5 C-9.67 4.01 -9.34 3.02 -9 2 C-3.25 2.875 -3.25 2.875 -1 4 C-0.67 2.68 -0.34 1.36 0 0 Z " fill="#91883E" transform="translate(24,107)"/>
<path d="M0 0 C3 2.3125 3 2.3125 5 5 C5 5.99 5 6.98 5 8 C2.03 9.32 -0.94 10.64 -4 12 C-4 13.32 -4 14.64 -4 16 C-4 16.33 -4 16.66 -4 17 C-9.06195185 17.37038672 -12.51547514 16.09336219 -17 14 C-18.74460251 13.25801204 -20.49491116 12.52933134 -22.25 11.8125 C-23.08015625 11.46832031 -23.9103125 11.12414063 -24.765625 10.76953125 C-27.07888495 9.83718297 -27.07888495 9.83718297 -30 10 C-30.33 9.01 -30.66 8.02 -31 7 C-28.75006641 6.97292861 -26.50003905 6.95357171 -24.25 6.9375 C-22.99703125 6.92589844 -21.7440625 6.91429687 -20.453125 6.90234375 C-17.71463499 6.97978973 -15.58119707 7.17219185 -13 8 C-12.9175 7.236875 -12.835 6.47375 -12.75 5.6875 C-12 3 -12 3 -10.4375 1.1875 C-6.95884704 -0.50722837 -3.74133516 -0.80753571 0 0 Z " fill="#7F390C" transform="translate(76,8)"/>
<path d="M0 0 C0.66 0 1.32 0 2 0 C2.66 0.66 3.32 1.32 4 2 C5.98821313 2.39764263 7.98944339 2.73775349 10 3 C9.67 5.97 9.34 8.94 9 12 C9.66 12 10.32 12 11 12 C11 12.99 11 13.98 11 15 C11.763125 14.79375 12.52625 14.5875 13.3125 14.375 C16 14 16 14 19 16 C19.33 16.33 19.66 16.66 20 17 C20.66 16.34 21.32 15.68 22 15 C23.32 15 24.64 15 26 15 C25.63774912 21.39976553 25.63774912 21.39976553 22.875 24 C19.08523002 25.31818086 16.83754392 25.13705005 13 24 C11.3125 21.4375 11.3125 21.4375 10 19 C8.68 19 7.36 19 6 19 C2.35920537 12.56479472 0.35865323 7.41216681 0 0 Z " fill="#E0A986" transform="translate(49,45)"/>
<path d="M0 0 C0.33 0 0.66 0 1 0 C1.33 2.31 1.66 4.62 2 7 C2.99 7.33 3.98 7.66 5 8 C5.22786458 10.01822917 5.45572917 12.03645833 5.68359375 14.0546875 C5.91292961 16.07404316 5.91292961 16.07404316 7 18 C10.12290635 17.51421457 12.99580359 17.0013988 16 16 C16.33 11.71 16.66 7.42 17 3 C17.33 3 17.66 3 18 3 C18.04898438 4.12277344 18.09796875 5.24554688 18.1484375 6.40234375 C18.52202856 14.13386692 18.95321159 21.49510917 21 29 C18 29 18 29 15 27 C10.65895791 26.79328371 7.18649864 26.90575808 3 28 C1.40681259 21.58191577 0.62073804 15.53659021 0.375 8.9375 C0.33632812 8.07189453 0.29765625 7.20628906 0.2578125 6.31445312 C0.16479519 4.20993641 0.08137331 2.1049991 0 0 Z " fill="#9C9138" transform="translate(105,104)"/>
<path d="M0 0 C0.66 0 1.32 0 2 0 C2 0.66 2 1.32 2 2 C2.8353125 2.12375 2.8353125 2.12375 3.6875 2.25 C6.69714206 3.22610013 8.62154752 4.95188814 11 7 C10.67 8.32 10.34 9.64 10 11 C7.09197539 8.78071806 5.04687238 7.07030857 3 4 C1.35 4.33 -0.3 4.66 -2 5 C-1.38125 5.165 -0.7625 5.33 -0.125 5.5 C2.79076242 7.55818524 2.99964388 9.55850146 3.80078125 12.9296875 C4 15 4 15 3.453125 17.1484375 C3.30359375 17.75945312 3.1540625 18.37046875 3 19 C4.35444301 20.77190909 4.35444301 20.77190909 6 22 C5.67 22.99 5.34 23.98 5 25 C4.443125 24.71125 3.88625 24.4225 3.3125 24.125 C-1.62471609 21.70247916 -1.62471609 21.70247916 -7 21 C-8.21977329 18.56045342 -8.20153813 16.84694151 -8.25 14.125 C-8.27578125 13.26132813 -8.3015625 12.39765625 -8.328125 11.5078125 C-7.93690173 8.51774897 -7.07073811 7.16120725 -5 5 C-4.34 5 -3.68 5 -3 5 C-3 4.01 -3 3.02 -3 2 C-2.01 2 -1.02 2 0 2 C0 1.34 0 0.68 0 0 Z " fill="#DBAB83" transform="translate(13,77)"/>
<path d="M0 0 C2 1 2 1 3.375 4 C4.65905291 7.13408271 4.65905291 7.13408271 7.1875 7.875 C7.785625 7.91625 8.38375 7.9575 9 8 C9.97346333 10.59590222 10.2237851 12.37486118 9.28125 15.0078125 C7.5566114 18.5485478 5.89642978 21.30174699 3 24 C2.34 24.66 1.68 25.32 1 26 C1 21.05 1 16.1 1 11 C-0.32 11 -1.64 11 -3 11 C-3 11.66 -3 12.32 -3 13 C-4.65 13.33 -6.3 13.66 -8 14 C-8 13.34 -8 12.68 -8 12 C-9.32 12 -10.64 12 -12 12 C-12 11.01 -12 10.02 -12 9 C-13.32 9 -14.64 9 -16 9 C-15.67 8.01 -15.34 7.02 -15 6 C-12.07345473 5.02448491 -10.05345004 4.83521912 -7 4.8125 C-5.700625 4.79123047 -5.700625 4.79123047 -4.375 4.76953125 C-2 5 -2 5 1 7 C0.67 4.69 0.34 2.38 0 0 Z " fill="#BB8768" transform="translate(81,33)"/>
<path d="M0 0 C0.66 0 1.32 0 2 0 C2 1.65 2 3.3 2 5 C3.32 3.68 4.64 2.36 6 1 C6 2.98 6 4.96 6 7 C6.66 7 7.32 7 8 7 C8.35035911 10.399781 8.53760862 13.61466257 8 17 C5.0625 19.5 5.0625 19.5 2 21 C1.67 21.66 1.34 22.32 1 23 C1.99 23 2.98 23 4 23 C4.33 24.98 4.66 26.96 5 29 C4.360625 29.12375 3.72125 29.2475 3.0625 29.375 C2.381875 29.58125 1.70125 29.7875 1 30 C0.67 30.66 0.34 31.32 0 32 C0 30.02 0 28.04 0 26 C-1.32 26.33 -2.64 26.66 -4 27 C-4.97722236 22.57298595 -4.91675577 19.53941498 -3.6875 15.1875 C-3.40648438 14.15496094 -3.12546875 13.12242188 -2.8359375 12.05859375 C-2.56007813 11.04925781 -2.28421875 10.03992188 -2 9 C-1.30101422 6.00615129 -0.65103097 3.0047583 0 0 Z " fill="#AEA342" transform="translate(89,71)"/>
<path d="M0 0 C0.99 0 1.98 0 3 0 C3.33 3.63 3.66 7.26 4 11 C4.33 10.67 4.66 10.34 5 10 C5.33 10 5.66 10 6 10 C6.67191263 17.05508262 5.59470583 20.57269828 1.5078125 26.34765625 C1.01023437 26.89292969 0.51265625 27.43820313 0 28 C-0.66 28 -1.32 28 -2 28 C-2 28.66 -2 29.32 -2 30 C-2.66 30 -3.32 30 -4 30 C-4 30.66 -4 31.32 -4 32 C-5.25 33.625 -5.25 33.625 -7 35 C-8.32 35 -9.64 35 -11 35 C-11 33.68 -11 32.36 -11 31 C-10.401875 30.896875 -9.80375 30.79375 -9.1875 30.6875 C-5.47554789 29.52088648 -4.11920388 27.17880582 -2 24 C-1.34 24.33 -0.68 24.66 0 25 C0.66 22.36 1.32 19.72 2 17 C0.68 17.33 -0.64 17.66 -2 18 C-2 18.66 -2 19.32 -2 20 C-2.66 20 -3.32 20 -4 20 C-4.33 20.66 -4.66 21.32 -5 22 C-4.67 20.02 -4.34 18.04 -4 16 C-7.72614153 17.11854586 -7.72614153 17.11854586 -10 20 C-11.98 20 -13.96 20 -16 20 C-15.01 19.01 -14.02 18.02 -13 17 C-15.2236068 15.7018576 -15.2236068 15.7018576 -19 16 C-19 15.34 -19 14.68 -19 14 C-6.33333333 12.22222222 -6.33333333 12.22222222 -1 14 C0.31745347 9.29480905 1.57012675 4.71038024 0 0 Z " fill="#D49C78" transform="translate(79,44)"/>
<path d="M0 0 C3.3 0 6.6 0 10 0 C10 0.33 10 0.66 10 1 C7.36 1.66 4.72 2.32 2 3 C1.97421875 3.7528125 1.9484375 4.505625 1.921875 5.28125 C1.56526549 11.95957356 0.66304174 18.27175609 -0.9375 24.75 C-1.10733398 25.45318359 -1.27716797 26.15636719 -1.45214844 26.88085938 C-1.89932606 28.60653911 -2.44195685 30.30691814 -3 32 C-3.99 32.495 -3.99 32.495 -5 33 C-5.99 29.7 -6.98 26.4 -8 23 C-8.66 23 -9.32 23 -10 23 C-10.33 21.35 -10.66 19.7 -11 18 C-11.66 18 -12.32 18 -13 18 C-12.938125 18.9075 -12.87625 19.815 -12.8125 20.75 C-13.01896655 24.32875347 -13.34684029 25.62130509 -16 28 C-18.6875 28.25 -18.6875 28.25 -21 28 C-20.34 27.67 -19.68 27.34 -19 27 C-18.29848848 25.6846659 -17.63474075 24.34882408 -17 23 C-16.34 22.01 -15.68 21.02 -15 20 C-14.54084493 17.03157342 -14.54084493 17.03157342 -14.375 13.8125 C-14.26285156 12.18248047 -14.26285156 12.18248047 -14.1484375 10.51953125 C-14.09945313 9.68808594 -14.05046875 8.85664062 -14 8 C-13.67 8 -13.34 8 -13 8 C-13 10.64 -13 13.28 -13 16 C-12.38125 16.103125 -11.7625 16.20625 -11.125 16.3125 C-9 17 -9 17 -7 20 C-6.34 19.67 -5.68 19.34 -5 19 C-5.33 17.02 -5.66 15.04 -6 13 C-5.01 13.99 -4.02 14.98 -3 16 C-0.98518266 13.98518266 -1.2785973 10.20923137 -0.9375 7.4375 C-0.84662109 6.72658203 -0.75574219 6.01566406 -0.66210938 5.28320312 C-0.43760497 3.52261597 -0.21831603 1.76136522 0 0 Z " fill="#F6F3D8" transform="translate(38,80)"/>
<path d="M0 0 C1.35439668 2.70879335 1.06501451 5.00933268 1 8 C1.66 8.33 2.32 8.66 3 9 C2.01 11.97 1.02 14.94 0 18 C-0.33 18 -0.66 18 -1 18 C-1.33 20.64 -1.66 23.28 -2 26 C-2.99 26.33 -3.98 26.66 -5 27 C-5.33 27.99 -5.66 28.98 -6 30 C-6.99 30.33 -7.98 30.66 -9 31 C-13.00390625 26.60546875 -13.00390625 26.60546875 -14 25 C-13.505 23.515 -13.505 23.515 -13 22 C-12.34 22 -11.68 22 -11 22 C-11 21.34 -11 20.68 -11 20 C-10.34 20 -9.68 20 -9 20 C-9 19.34 -9 18.68 -9 18 C-8.34 18 -7.68 18 -7 18 C-6.731875 17.443125 -6.46375 16.88625 -6.1875 16.3125 C-5 14 -5 14 -3.4375 11.75 C-1.54027188 8.12052012 -1.40654422 5.06544217 -1 1 C-0.67 0.67 -0.34 0.34 0 0 Z " fill="#E5DDDA" transform="translate(86,54)"/>
<path d="M0 0 C1.27310312 0.93441535 2.543388 1.87267111 3.8125 2.8125 C4.52019531 3.33457031 5.22789063 3.85664062 5.95703125 4.39453125 C7.78531393 5.83128877 9.39896688 7.31815763 11 9 C10.01 9.495 10.01 9.495 9 10 C9 11.65 9 13.3 9 15 C8.01 15.33 7.02 15.66 6 16 C6 14.35 6 12.7 6 11 C4.04783565 12.95216435 3.15173355 14.53199953 2 17 C1.875 10.25 1.875 10.25 3 8 C2.34 8 1.68 8 1 8 C0.87882812 8.92941406 0.75765625 9.85882813 0.6328125 10.81640625 C-0.90411738 22.15421975 -0.90411738 22.15421975 -2.125 26 C-3.04138088 29.14187732 -3.15875924 31.74543564 -3 35 C-3.99 35.495 -3.99 35.495 -5 36 C-5.66 36.99 -6.32 37.98 -7 39 C-6.48121225 31.55807918 -5.18250767 24.31441639 -3.76171875 17.00390625 C-2.87195953 12.40700115 -2.13974023 7.78795606 -1.4296875 3.16015625 C-1 1 -1 1 0 0 Z " fill="#B7AF61" transform="translate(88,63)"/>
<path d="M0 0 C1.98 0 3.96 0 6 0 C6 0.66 6 1.32 6 2 C6.66 2 7.32 2 8 2 C8.76173392 6.3164922 9.16063604 9.74433453 8 14 C7.34 14 6.68 14 6 14 C5.67 13.01 5.34 12.02 5 11 C4.91363281 11.69867188 4.82726563 12.39734375 4.73828125 13.1171875 C4.31795176 15.83968863 3.86256547 18.38196209 3 21 C0.375 22.625 0.375 22.625 -2 23 C-3.10239771 18.59040918 -2.79255702 15.51943906 -1.546875 11.16796875 C-0.6217243 7.50040706 -0.33080215 3.76069807 0 0 Z " fill="#A2973E" transform="translate(39,87)"/>
<path d="M0 0 C0.26554687 0.5878125 0.53109375 1.175625 0.8046875 1.78125 C2.3765364 4.69893031 4.4872983 6.82873505 6.7578125 9.21875 C8 11 8 11 8 15 C7.01 14.67 6.02 14.34 5 14 C3.10529184 13.9314505 1.2083166 13.91519628 -0.6875 13.9375 C-1.68136719 13.94652344 -2.67523438 13.95554687 -3.69921875 13.96484375 C-4.45847656 13.97644531 -5.21773437 13.98804688 -6 14 C-6 13.34 -6 12.68 -6 12 C-6.66 11.67 -7.32 11.34 -8 11 C-7.67 10.34 -7.34 9.68 -7 9 C-7.66 8.34 -8.32 7.68 -9 7 C-8.34 6.34 -7.68 5.68 -7 5 C-10.63 4.67 -14.26 4.34 -18 4 C-18 3.67 -18 3.34 -18 3 C-17.03578125 2.95101563 -16.0715625 2.90203125 -15.078125 2.8515625 C-13.81484375 2.77679687 -12.5515625 2.70203125 -11.25 2.625 C-9.99703125 2.55539063 -8.7440625 2.48578125 -7.453125 2.4140625 C-4.39001879 2.04676696 -2.58025734 1.60288714 0 0 Z " fill="#E1AD89" transform="translate(74,25)"/>
<path d="M0 0 C2.36828104 2.10190996 4.21944716 4.3885225 6 7 C5.01 7.33 4.02 7.66 3 8 C3 7.34 3 6.68 3 6 C2.34 6 1.68 6 1 6 C1 5.34 1 4.68 1 4 C-2.72334781 1.51776813 -6.67356629 1.26264066 -11 2 C-13.96858157 4.20740681 -14.82865791 5.48597373 -16 9 C-21.28 9 -26.56 9 -32 9 C-28.22047058 5.97637646 -25.28659473 3.92726557 -21.0625 1.8125 C-20.06347656 1.30332031 -19.06445312 0.79414062 -18.03515625 0.26953125 C-11.86428218 -2.31159368 -6.17473526 -2.66361129 0 0 Z " fill="#6E310F" transform="translate(79,7)"/>
<path d="M0 0 C1.98 0 3.96 0 6 0 C12.09835523 13.0760082 11.84885338 26.90249296 10 41 C9.67 41 9.34 41 9 41 C8.6610769 37.64637391 8.32988036 34.29202668 8 30.9375 C7.90460938 29.99455078 7.80921875 29.05160156 7.7109375 28.08007812 C7.21774722 23.02487778 6.88729068 18.07896392 7 13 C6.360625 12.731875 5.72125 12.46375 5.0625 12.1875 C3 11 3 11 2 8 C2.66 8 3.32 8 4 8 C4 7.34 4 6.68 4 6 C3.34 6 2.68 6 2 6 C3 4 3 4 4 3 C2.68 2.67 1.36 2.34 0 2 C0 1.34 0 0.68 0 0 Z " fill="#C1BA59" transform="translate(112,75)"/>
<path d="M0 0 C2.875 -0.125 2.875 -0.125 6 0 C6.66 0.66 7.32 1.32 8 2 C7.81587646 3.64441365 7.61549916 5.28882694 7.32861328 6.91845703 C6.72671171 10.73109657 6.62681161 14.58609493 6.4375 18.4375 C6.39431641 19.26443359 6.35113281 20.09136719 6.30664062 20.94335938 C6.20161967 22.96209549 6.10041441 24.98102951 6 27 C5.67 27 5.34 27 5 27 C4.34 23.37 3.68 19.74 3 16 C2.34 16.99 1.68 17.98 1 19 C0.92652344 18.07767578 0.92652344 18.07767578 0.8515625 17.13671875 C0.77679688 16.32847656 0.70203125 15.52023438 0.625 14.6875 C0.55539063 13.88699219 0.48578125 13.08648437 0.4140625 12.26171875 C0.10435574 9.72775559 0.10435574 9.72775559 -2 7 C-1.67873872 4.36565746 -1.18644952 2.37289903 0 0 Z " fill="#774334" transform="translate(67,79)"/>
<path d="M0 0 C0.33 0 0.66 0 1 0 C1.29545979 7.41932368 0.92341015 14.79314841 -1 22 C-1.66 22.33 -2.32 22.66 -3 23 C-3.33 21.68 -3.66 20.36 -4 19 C-4.598125 18.979375 -5.19625 18.95875 -5.8125 18.9375 C-8 18 -8 18 -9.75 14.4375 C-10.1625 13.303125 -10.575 12.16875 -11 11 C-10.01 11 -9.02 11 -8 11 C-7.67 9.68 -7.34 8.36 -7 7 C-5.68 7 -4.36 7 -3 7 C-3 5.68 -3 4.36 -3 3 C-2.34 3 -1.68 3 -1 3 C-0.67 2.01 -0.34 1.02 0 0 Z " fill="#59250F" transform="translate(93,22)"/>
<path d="M0 0 C3.35786693 0.79884737 4.93991349 2.77668063 6.9375 5.4609375 C6.9375 6.4509375 6.9375 7.4409375 6.9375 8.4609375 C5.3596875 8.6775 5.3596875 8.6775 3.75 8.8984375 C0.11142613 9.36421762 0.11142613 9.36421762 -2.6875 10.1484375 C-5.76496818 10.55336752 -7.39439928 10.01732959 -10.0625 8.4609375 C-10.875 6.3359375 -10.875 6.3359375 -11.0625 4.4609375 C-7.50322847 0.90166597 -4.91593667 -0.24207264 0 0 Z " fill="#813B07" transform="translate(74.0625,7.5390625)"/>
<path d="M0 0 C1.31223496 3.93670488 0.24296256 6.12488144 -1 10 C0.32 10 1.64 10 3 10 C3 10.66 3 11.32 3 12 C3.66 12 4.32 12 5 12 C5 14.31 5 16.62 5 19 C3.02253397 19.73080266 1.01927511 20.39421747 -1 21 C-1.66 20.67 -2.32 20.34 -3 20 C-3.33 20.99 -3.66 21.98 -4 23 C-3.98839844 22.11957031 -3.97679687 21.23914063 -3.96484375 20.33203125 C-3.95582031 19.17058594 -3.94679687 18.00914063 -3.9375 16.8125 C-3.92589844 15.66394531 -3.91429687 14.51539062 -3.90234375 13.33203125 C-3.98807168 10.40699414 -4.32150977 7.83683709 -5 5 C-5.66 5 -6.32 5 -7 5 C-7 4.01 -7 3.02 -7 2 C-4.69 1.34 -2.38 0.68 0 0 Z " fill="#A6993C" transform="translate(52,84)"/>
<path d="M0 0 C0.76347254 2.48128576 0.9921793 4.37539357 0.9375 7 C0.77563917 9.89288976 0.77563917 9.89288976 1.93359375 11.7890625 C6.17070128 20.57368837 5.260871 32.46371567 5 42 C4.67 42 4.34 42 4 42 C3.67 35.73 3.34 29.46 3 23 C2.34 23 1.68 23 1 23 C0.67 21.35 0.34 19.7 0 18 C-0.66 23.61 -1.32 29.22 -2 35 C-2.33 35 -2.66 35 -3 35 C-3.33 24.11 -3.66 13.22 -4 2 C-3.67 2 -3.34 2 -3 2 C-3 3.65 -3 5.3 -3 7 C-2.34 7 -1.68 7 -1 7 C-0.67 4.69 -0.34 2.38 0 0 Z " fill="#8F8128" transform="translate(48,94)"/>
<path d="M0 0 C0.33 0.66 0.66 1.32 1 2 C0.06421005 4.35981813 -0.93347808 6.69631264 -2 9 C-2.66 9 -3.32 9 -4 9 C-4.99 10.485 -4.99 10.485 -6 12 C-6.66 12 -7.32 12 -8 12 C-8.66 13.32 -9.32 14.64 -10 16 C-10.99 15.67 -11.98 15.34 -13 15 C-13.33 15.66 -13.66 16.32 -14 17 C-14.66 15.68 -15.32 14.36 -16 13 C-16.66 13 -17.32 13 -18 13 C-19.21875 11.50390625 -19.21875 11.50390625 -20.5 9.5625 C-22.2865363 6.77468153 -22.2865363 6.77468153 -25 5 C-25 4.34 -25 3.68 -25 3 C-23.125 3.25 -23.125 3.25 -21 4 C-20.731875 4.66 -20.46375 5.32 -20.1875 6 C-19.08008013 8.38778823 -19.08008013 8.38778823 -15.6875 8.9375 C-11.64775528 9.00597025 -10.12083099 8.47830696 -7 6 C-6.67 5.34 -6.34 4.68 -6 4 C-5.34 4 -4.68 4 -4 4 C-4 3.34 -4 2.68 -4 2 C-2.68 1.34 -1.36 0.68 0 0 Z " fill="#986145" transform="translate(81,60)"/>
<path d="M0 0 C0.99 0.33 1.98 0.66 3 1 C4.33106622 1.34227417 5.66400079 1.67751743 7 2 C7.33 1.34 7.66 0.68 8 0 C9.70097842 2.60149641 10.01268885 3.84773377 9.75 7 C9.09449955 9.62200178 8.34306681 11.67201752 7 14 C4.33333333 13.33333333 1.66666667 12.66666667 -1 12 C-1 11.01 -1 10.02 -1 9 C-1.66 9 -2.32 9 -3 9 C-3 8.01 -3 7.02 -3 6 C-2.34 6 -1.68 6 -1 6 C-1 5.34 -1 4.68 -1 4 C-1.66 4 -2.32 4 -3 4 C-3 3.34 -3 2.68 -3 2 C-2.01 2 -1.02 2 0 2 C0 1.34 0 0.68 0 0 Z " fill="#EEBC96" transform="translate(71,44)"/>
<path d="M0 0 C0.66 0.33 1.32 0.66 2 1 C2 2.65 2 4.3 2 6 C2.66 6 3.32 6 4 6 C4.96205088 12.37358711 5.10655578 18.55929529 5 25 C2.36 25 -0.28 25 -3 25 C-3 23.35 -3 21.7 -3 20 C-2.34 20 -1.68 20 -1 20 C-1.01160156 19.05898437 -1.02320313 18.11796875 -1.03515625 17.1484375 C-1.04417969 15.90320313 -1.05320313 14.65796875 -1.0625 13.375 C-1.07410156 12.14523438 -1.08570313 10.91546875 -1.09765625 9.6484375 C-1.00863924 6.32276209 -0.63686087 3.25952412 0 0 Z " fill="#ABA042" transform="translate(47,111)"/>
<path d="M0 0 C0.66 0.66 1.32 1.32 2 2 C2.33 1.34 2.66 0.68 3 0 C3.66 0 4.32 0 5 0 C5.33 5.28 5.66 10.56 6 16 C2.37 16 -1.26 16 -5 16 C-5 12.04 -5 8.08 -5 4 C-3 8 -3 8 -2 12 C-1.34 8.04 -0.68 4.08 0 0 Z " fill="#7C381A" transform="translate(70,120)"/>
<path d="M0 0 C0.66 0 1.32 0 2 0 C2 1.98 2 3.96 2 6 C2.66 6 3.32 6 4 6 C8.11611043 10.88788114 9.06423654 15.76978542 10 22 C8.02 22 6.04 22 4 22 C3.32779649 20.06441401 2.66241923 18.12645628 2 16.1875 C1.62875 15.10855469 1.2575 14.02960938 0.875 12.91796875 C0 10 0 10 0 7 C-0.99 6.67 -1.98 6.34 -3 6 C-2.42655063 3.13275314 -2.1385485 2.1385485 0 0 Z " fill="#8E8125" transform="translate(25,114)"/>
<path d="M0 0 C0.66 0.33 1.32 0.66 2 1 C1.98952637 1.61294922 1.97905273 2.22589844 1.96826172 2.85742188 C1.79804934 14.38015365 1.85797603 25.60478395 3.5625 37.015625 C4 40 4 40 4 43 C2.68 43 1.36 43 0 43 C0.03480469 42.08734375 0.03480469 42.08734375 0.0703125 41.15625 C0.1939728 35.14989272 -0.19685199 29.3268741 -0.9375 23.375 C-1.02435059 22.66408203 -1.11120117 21.95316406 -1.20068359 21.22070312 C-1.40147707 17.81791326 -1.40147707 17.81791326 -3 15 C-3.07244053 12.98035801 -3.08377188 10.95832876 -3.0625 8.9375 C-3.05347656 7.83277344 -3.04445313 6.72804688 -3.03515625 5.58984375 C-3.02355469 4.73519531 -3.01195313 3.88054687 -3 3 C-2.34 3 -1.68 3 -1 3 C-0.67 2.01 -0.34 1.02 0 0 Z " fill="#81731A" transform="translate(104,88)"/>
<path d="M0 0 C0.33 0 0.66 0 1 0 C1.22512171 4.12426536 1.42725588 8.24933849 1.625 12.375 C1.68945312 13.550625 1.75390625 14.72625 1.8203125 15.9375 C1.871875 17.05898437 1.9234375 18.18046875 1.9765625 19.3359375 C2.02893066 20.37282715 2.08129883 21.4097168 2.13525391 22.47802734 C2 25 2 25 0 27 C-0.3063859 29.73434962 -0.5113336 32.38279821 -0.625 35.125 C-0.66367187 35.87910156 -0.70234375 36.63320312 -0.7421875 37.41015625 C-0.83651031 39.27303184 -0.91934662 41.13648255 -1 43 C-2.32 43 -3.64 43 -5 43 C-4.45090385 37.84025146 -3.89948237 32.68075859 -3.34594727 27.52148438 C-3.15814019 25.76797128 -2.97095784 24.01439116 -2.78442383 22.26074219 C-2.51549656 19.73354301 -2.24429002 17.20659702 -1.97265625 14.6796875 C-1.89032242 13.90132538 -1.80798859 13.12296326 -1.72315979 12.3210144 C-1.27624486 8.18568007 -0.73224011 4.09712559 0 0 Z " fill="#EBE8DC" transform="translate(60,93)"/>
<path d="M0 0 C1.77111844 0.47811177 3.54188483 0.9575278 5.3125 1.4375 C6.29863281 1.70433594 7.28476562 1.97117187 8.30078125 2.24609375 C10.21517526 2.78079425 12.11433615 3.37144538 14 4 C14 4.66 14 5.32 14 6 C12 7 12 7 8.625 6.9375 C5.11607161 6.99799877 3.89110123 7.26533926 1 9 C-0.66140763 9.67966676 -2.32700041 10.34938905 -4 11 C-4.8125 8.3125 -4.8125 8.3125 -5 5 C-2.5625 2.125 -2.5625 2.125 0 0 Z " fill="#5D2C1D" transform="translate(44,16)"/>
<path d="M0 0 C2 1 2 1 3.375 4 C4.65905291 7.13408271 4.65905291 7.13408271 7.1875 7.875 C7.785625 7.91625 8.38375 7.9575 9 8 C9.97346333 10.59590222 10.2237851 12.37486118 9.28125 15.0078125 C7.5566114 18.5485478 5.89642978 21.30174699 3 24 C2.34 24.66 1.68 25.32 1 26 C1.00523682 25.39003174 1.01047363 24.78006348 1.01586914 24.15161133 C1.03673335 21.37191815 1.04969013 18.59224149 1.0625 15.8125 C1.07087891 14.85279297 1.07925781 13.89308594 1.08789062 12.90429688 C1.09111328 11.97294922 1.09433594 11.04160156 1.09765625 10.08203125 C1.10289307 9.22843018 1.10812988 8.3748291 1.11352539 7.49536133 C0.99579323 4.90753253 0.57107044 2.52338047 0 0 Z " fill="#66351E" transform="translate(81,33)"/>
<path d="M0 0 C0.66 0 1.32 0 2 0 C2.66 0.66 3.32 1.32 4 2 C5.98821313 2.39764263 7.98944339 2.73775349 10 3 C9.67 5.97 9.34 8.94 9 12 C9.66 12.33 10.32 12.66 11 13 C10.01 14.485 10.01 14.485 9 16 C8.01 16 7.02 16 6 16 C6 15.34 6 14.68 6 14 C5.01 14 4.02 14 3 14 C-0.44419134 4.58997722 -0.44419134 4.58997722 0 0 Z " fill="#EFBF98" transform="translate(49,45)"/>
<path d="M0 0 C0.33 0 0.66 0 1 0 C1.94321737 4.79908999 2.18304182 9.38166297 2.1875 14.25 C2.19974609 14.96929687 2.21199219 15.68859375 2.22460938 16.4296875 C2.22982924 18.28795986 2.12264513 20.14577197 2 22 C1.34 22.66 0.68 23.32 0 24 C-4 18.25 -4 18.25 -4 16 C-5.65 15.67 -7.3 15.34 -9 15 C-8.34 13.02 -7.68 11.04 -7 9 C-6.34 9.66 -5.68 10.32 -5 11 C-3.68 10.67 -2.36 10.34 -1 10 C-0.67 6.7 -0.34 3.4 0 0 Z " fill="#A2953B" transform="translate(43,98)"/>
<path d="M0 0 C2 1 2 1 2.6171875 2.66015625 C3.10027226 5.61288858 3.13191765 8.44561852 3.125 11.4375 C3.12757812 12.54996094 3.13015625 13.66242188 3.1328125 14.80859375 C2.83209013 22.03477545 2.83209013 22.03477545 0.4375 24.8125 C-0.036875 25.204375 -0.51125 25.59625 -1 26 C-3.53551921 18.54259055 -2.80612738 11.75625262 -2 4 C-1.34 4 -0.68 4 0 4 C0 2.68 0 1.36 0 0 Z " fill="#944837" transform="translate(69,94)"/>
<path d="M0 0 C0.0272616 2.04159095 0.04651345 4.08328963 0.0625 6.125 C0.07410156 7.26195313 0.08570313 8.39890625 0.09765625 9.5703125 C0.005327 12.8129156 -0.38610094 15.81932612 -1 19 C-1.99 19.33 -2.98 19.66 -4 20 C-5.4999411 18.5000589 -5.31607651 17.05340395 -5.53515625 14.96484375 C-5.62216797 14.15595703 -5.70917969 13.34707031 -5.79882812 12.51367188 C-5.9293457 11.2384668 -5.9293457 11.2384668 -6.0625 9.9375 C-6.19881836 8.65649414 -6.19881836 8.65649414 -6.33789062 7.34960938 C-6.56250722 5.23348465 -6.78175227 3.11679106 -7 1 C-2.25 0 -2.25 0 0 0 Z " fill="#B8AD4A" transform="translate(57,103)"/>
<path d="M0 0 C0.66 0 1.32 0 2 0 C2 0.66 2 1.32 2 2 C3.32 2.33 4.64 2.66 6 3 C6 4.65 6 6.3 6 8 C6.66 8 7.32 8 8 8 C8.33 6.68 8.66 5.36 9 4 C9.103125 4.763125 9.20625 5.52625 9.3125 6.3125 C10.04364039 9.17059424 10.76951913 10.15742885 13 12 C12.67 12.99 12.34 13.98 12 15 C11.443125 14.71125 10.88625 14.4225 10.3125 14.125 C5.37528391 11.70247916 5.37528391 11.70247916 0 11 C-1.62651522 7.74696956 -1.11453156 4.60774398 -1 1 C-0.67 0.67 -0.34 0.34 0 0 Z " fill="#CFA27E" transform="translate(6,87)"/>
<path d="M0 0 C1.21445931 3.64337793 0.66848294 4.29715989 -0.875 7.6875 C-2.80929463 12.2297574 -3.63643126 16.09182205 -4 21 C-5.32 21 -6.64 21 -8 21 C-8 14.73 -8 8.46 -8 2 C-5.525 3.485 -5.525 3.485 -3 5 C-3 4.01 -3 3.02 -3 2 C-2.01 1.34 -1.02 0.68 0 0 Z " fill="#9B8E36" transform="translate(86,115)"/>
<path d="M0 0 C0.33 0 0.66 0 1 0 C1.67191263 7.05508262 0.59470583 10.57269828 -3.4921875 16.34765625 C-3.98976563 16.89292969 -4.48734375 17.43820313 -5 18 C-5.66 18 -6.32 18 -7 18 C-7 18.66 -7 19.32 -7 20 C-7.66 20 -8.32 20 -9 20 C-9 20.66 -9 21.32 -9 22 C-10.25 23.625 -10.25 23.625 -12 25 C-13.32 25 -14.64 25 -16 25 C-16 23.68 -16 22.36 -16 21 C-15.401875 20.896875 -14.80375 20.79375 -14.1875 20.6875 C-10.47554789 19.52088648 -9.11920388 17.17880582 -7 14 C-6.34 14.33 -5.68 14.66 -5 15 C-4.34 12.36 -3.68 9.72 -3 7 C-4.32 7.33 -5.64 7.66 -7 8 C-7.33 8.66 -7.66 9.32 -8 10 C-8 8.68 -8 7.36 -8 6 C-5.5 3.75 -5.5 3.75 -3 2 C-2.34 2.33 -1.68 2.66 -1 3 C-0.67 2.01 -0.34 1.02 0 0 Z " fill="#A98063" transform="translate(84,54)"/>
<path d="M0 0 C2.97 0.495 2.97 0.495 6 1 C5.21625 1.5775 4.4325 2.155 3.625 2.75 C0.2602605 5.63406243 -0.62503335 7.87510006 -2 12 C-2.99 12.495 -2.99 12.495 -4 13 C-3.01 14.485 -3.01 14.485 -2 16 C-2 16.99 -2 17.98 -2 19 C-1.34 19 -0.68 19 0 19 C-0.33 19.99 -0.66 20.98 -1 22 C-1 21.34 -1 20.68 -1 20 C-1.99 19.67 -2.98 19.34 -4 19 C-5.6875 15.9375 -5.6875 15.9375 -7 13 C-7.99 13.495 -7.99 13.495 -9 14 C-9.66 13.34 -10.32 12.68 -11 12 C-10.67 11.34 -10.34 10.68 -10 10 C-9.34 10 -8.68 10 -8 10 C-8 9.34 -8 8.68 -8 8 C-9.32 7.67 -10.64 7.34 -12 7 C-11.30132812 6.74605469 -10.60265625 6.49210937 -9.8828125 6.23046875 C-8.97273438 5.88628906 -8.06265625 5.54210937 -7.125 5.1875 C-6.22007813 4.85105469 -5.31515625 4.51460937 -4.3828125 4.16796875 C-1.70574151 3.10350976 -1.70574151 3.10350976 0 0 Z " fill="#6C2C0A" transform="translate(81,13)"/>
<path d="M0 0 C0.9075 0.309375 1.815 0.61875 2.75 0.9375 C5.16563338 1.7272263 7.52780285 2.42949297 10 3 C9.67 3.99 9.34 4.98 9 6 C7.7315625 6.495 7.7315625 6.495 6.4375 7 C3.72254498 8.75942503 3.72254498 8.75942503 3.671875 11.63671875 C3.68622797 14.43913675 3.78654089 17.20605737 4 20 C1.24862067 17.66844967 0.53575497 15.96313853 -0.0625 12.4375 C-0.64602448 8.80364322 -0.64602448 8.80364322 -3 6 C-2.63318342 3.06546739 -2.13562754 2.13562754 0 0 Z " fill="#481D10" transform="translate(44,24)"/>
<path d="M0 0 C1 3 1 3 0 6 C-0.35236497 7.99673484 -0.68834559 9.99650739 -1 12 C-1.33 12 -1.66 12 -2 12 C-2.12375 11.195625 -2.2475 10.39125 -2.375 9.5625 C-2.58125 8.716875 -2.7875 7.87125 -3 7 C-3.66 6.67 -4.32 6.34 -5 6 C-4.7215625 6.9590625 -4.7215625 6.9590625 -4.4375 7.9375 C-4.293125 8.618125 -4.14875 9.29875 -4 10 C-4.33 10.33 -4.66 10.66 -5 11 C-5.04080783 12.99958364 -5.04254356 15.00045254 -5 17 C-4.67 17 -4.34 17 -4 17 C-4 18.98 -4 20.96 -4 23 C-4.66 23 -5.32 23 -6 23 C-6 24.65 -6 26.3 -6 28 C-6.33 28 -6.66 28 -7 28 C-8.05066804 23.68805834 -8.18340146 19.47663221 -8.1875 15.0625 C-8.19974609 14.37220703 -8.21199219 13.68191406 -8.22460938 12.97070312 C-8.23706114 8.59183186 -7.61027921 5.06706884 -6 1 C-5.01 1.66 -4.02 2.32 -3 3 C-2.01 2.01 -1.02 1.02 0 0 Z " fill="#D8CBCD" transform="translate(81,81)"/>
<path d="M0 0 C3 2 3 2 3.58984375 3.84765625 C3.70457031 4.57855469 3.81929687 5.30945312 3.9375 6.0625 C4.75679797 10.38117235 6.24494749 13.95513967 8.11328125 17.9140625 C9.23986345 20.56426027 9.70709013 23.14412874 10 26 C9.34 26 8.68 26 8 26 C7.01 23.03 6.02 20.06 5 17 C3.35 17.33 1.7 17.66 0 18 C-1.16975841 13.71088583 -0.68784379 10.35634403 0 6 C0.03635763 4.0003305 0.04876598 1.99940538 0 0 Z " fill="#F6F2EB" transform="translate(41,30)"/>
<path d="M0 0 C4.95 0 9.9 0 15 0 C14.67 0.99 14.34 1.98 14 3 C14.66 3.33 15.32 3.66 16 4 C15.67 4.99 15.34 5.98 15 7 C14.41992188 6.9278125 13.83984375 6.855625 13.2421875 6.78125 C8.79912426 6.2533613 4.48368422 5.88503374 0 6 C-0.33 5.34 -0.66 4.68 -1 4 C0.32 3.67 1.64 3.34 3 3 C2.01 2.01 1.02 1.02 0 0 Z " fill="#F7F4EC" transform="translate(64,0)"/>
<path d="M0 0 C2.475 0.99 2.475 0.99 5 2 C5.33 4.31 5.66 6.62 6 9 C6.66 9 7.32 9 8 9 C9.12880057 12.31114834 10.21302675 15.58978257 11 19 C10.01 19 9.02 19 8 19 C5 15.66666667 5 15.66666667 5 13 C4.34 13 3.68 13 3 13 C2.51171875 11.01432292 2.0234375 9.02864583 1.53515625 7.04296875 C1.08989295 5.34316798 0.55566015 3.66698046 0 2 C0 1.34 0 0.68 0 0 Z " fill="#A39539" transform="translate(24,107)"/>
<path d="M0 0 C0.33 0 0.66 0 1 0 C1.33 2.31 1.66 4.62 2 7 C2.99 7.33 3.98 7.66 5 8 C5.33 13.61 5.66 19.22 6 25 C5.01 25 4.02 25 3 25 C0.85862846 19.69009497 0.57892937 14.76704593 0.375 9.125 C0.33632812 8.24585937 0.29765625 7.36671875 0.2578125 6.4609375 C0.16418966 4.30761207 0.08103541 2.15383586 0 0 Z " fill="#92842B" transform="translate(105,104)"/>
<path d="M0 0 C0.66 0 1.32 0 2 0 C3.54070648 4.80075206 2.71200654 9.32490521 1 14 C-1.625 15.625 -1.625 15.625 -4 16 C-4.74926071 12.33694766 -5.2380014 9.57644848 -4 6 C-3.34 6 -2.68 6 -2 6 C-1.34 4.02 -0.68 2.04 0 0 Z " fill="#BFB659" transform="translate(41,94)"/>
<path d="M0 0 C0.99 0.66 1.98 1.32 3 2 C2.55527344 3.17949219 2.55527344 3.17949219 2.1015625 4.3828125 C0.74363606 8.84181917 0.05441834 13.27159411 -0.625 17.875 C-0.7590625 18.75414063 -0.893125 19.63328125 -1.03125 20.5390625 C-1.35887059 22.69199778 -1.68008508 24.84590622 -2 27 C-4.16235504 23.75646744 -4.21879428 23.38055519 -3.7578125 19.76953125 C-3.66113281 18.96708984 -3.56445312 18.16464844 -3.46484375 17.33789062 C-3.35269531 16.50451172 -3.24054687 15.67113281 -3.125 14.8125 C-3.02058594 13.96751953 -2.91617188 13.12253906 -2.80859375 12.25195312 C-2.54940443 10.16665725 -2.27605197 8.08313064 -2 6 C-3.65 6.66 -5.3 7.32 -7 8 C-5.98823563 4.59679258 -5.35156418 3.24274669 -2.375 1.1875 C-1.59125 0.795625 -0.8075 0.40375 0 0 Z " fill="#A69E58" transform="translate(62,72)"/>
<path d="M0 0 C6.4 0.49230769 6.4 0.49230769 9.4375 3.0625 C10.2109375 4.0215625 10.2109375 4.0215625 11 5 C10.01 5.66 9.02 6.32 8 7 C7.67 6.67 7.34 6.34 7 6 C6.071875 6.495 6.071875 6.495 5.125 7 C3 8 3 8 1 8 C1 7.01 1 6.02 1 5 C0.01 6.485 0.01 6.485 -1 8 C-1.66 6.68 -2.32 5.36 -3 4 C-2.01 2.68 -1.02 1.36 0 0 Z " fill="#C49D81" transform="translate(50,40)"/>
<path d="M0 0 C1.98 0 3.96 0 6 0 C6.226875 0.598125 6.45375 1.19625 6.6875 1.8125 C7.87137358 4.22929057 7.87137358 4.22929057 10.625 5.3125 C11.800625 6.1478125 11.800625 6.1478125 13 7 C13.3125 10.6875 13.3125 10.6875 13 14 C12.01 14.33 11.02 14.66 10 15 C9.34 13.35 8.68 11.7 8 10 C7.01 10 6.02 10 5 10 C4.54625 8.865625 4.0925 7.73125 3.625 6.5625 C2.42904194 2.95278308 2.42904194 2.95278308 0 2 C0 1.34 0 0.68 0 0 Z " fill="#D19C75" transform="translate(11,80)"/>
<path d="M0 0 C1.35439668 2.70879335 1.06501451 5.00933268 1 8 C1.66 8.33 2.32 8.66 3 9 C2.12461386 13.18544 1.34401702 16.83889654 -1.98046875 19.7109375 C-3.95038875 20.91729559 -5.91224461 22.01315125 -8 23 C-7.731875 22.34 -7.46375 21.68 -7.1875 21 C-5.96409837 17.90930115 -4.81712447 14.79642601 -3.68359375 11.671875 C-3 10 -3 10 -2 9 C-1.79395915 7.67218122 -1.6337041 6.33704105 -1.5 5 C-1.11111111 1.11111111 -1.11111111 1.11111111 0 0 Z " fill="#F2EEF0" transform="translate(86,54)"/>
<path d="M0 0 C1.98 0.66 3.96 1.32 6 2 C6 4.97 6 7.94 6 11 C6.99 11 7.98 11 9 11 C9.33 10.34 9.66 9.68 10 9 C10 9.66 10 10.32 10 11 C10.66 11 11.32 11 12 11 C12 10.34 12 9.68 12 9 C12.66 9 13.32 9 14 9 C14 9.66 14 10.32 14 11 C15.32 11.33 16.64 11.66 18 12 C12.47032059 12.71033431 7.50016964 13.30267176 2 12 C2.33 9.03 2.66 6.06 3 3 C2.01 2.67 1.02 2.34 0 2 C0 1.34 0 0.68 0 0 Z " fill="#DCAB85" transform="translate(56,45)"/>
<path d="M0 0 C1.65 0 3.3 0 5 0 C5.125 5.75 5.125 5.75 4 8 C5.65 8 7.3 8 9 8 C8.34 8.66 7.68 9.32 7 10 C3.375 9.625 3.375 9.625 0 9 C-0.33 8.01 -0.66 7.02 -1 6 C-2.3153341 5.29848848 -3.65117592 4.63474075 -5 4 C-6.75 2.375 -6.75 2.375 -8 1 C-5.13275314 1.57344937 -4.1385485 1.8614515 -2 4 C-1.34 2.68 -0.68 1.36 0 0 Z " fill="#F7F5EC" transform="translate(99,64)"/>
<path d="M0 0 C5.77919587 8.66879381 3.30252596 24.06823953 2 34 C1.67 34 1.34 34 1 34 C-0.12866889 26.81917746 -0.11434249 19.75794868 -0.0625 12.5 C-0.05798828 11.29601562 -0.05347656 10.09203125 -0.04882812 8.8515625 C-0.0371195 5.90098927 -0.02071995 2.95052141 0 0 Z " fill="#C3BE72" transform="translate(120,82)"/>
<path d="M0 0 C1.86328125 0.23828125 1.86328125 0.23828125 4 1 C6.94942598 5.44754712 8.45904788 10.72571683 9 16 C7.35 16.33 5.7 16.66 4 17 C4 16.01 4 15.02 4 14 C3.67 13.01 3.34 12.02 3 11 C2.64456573 8.66993089 2.3086247 6.33672984 2 4 C1.34 4 0.68 4 0 4 C0 2.68 0 1.36 0 0 Z " fill="#AC9F42" transform="translate(30,112)"/>
<path d="M0 0 C0.66 0.33 1.32 0.66 2 1 C2.10064005 7.28371307 1.75941669 13.32809949 1 19.5625 C0.90460938 20.38041016 0.80921875 21.19832031 0.7109375 22.04101562 C0.47855491 24.02788675 0.23994484 26.01402794 0 28 C-0.33 26.68 -0.66 25.36 -1 24 C-1.66 24 -2.32 24 -3 24 C-3 21.36 -3 18.72 -3 16 C-2.34 16 -1.68 16 -1 16 C-1.01160156 15.43152344 -1.02320312 14.86304687 -1.03515625 14.27734375 C-1.09223194 9.39329516 -0.81956772 4.81496035 0 0 Z " fill="#E4D5CF" transform="translate(66,88)"/>
<path d="M0 0 C0.33 0.66 0.66 1.32 1 2 C-1.31 2 -3.62 2 -6 2 C-6 3.98 -6 5.96 -6 8 C-5.01 8 -4.02 8 -3 8 C-3.33 8.66 -3.66 9.32 -4 10 C-7.375 9.75 -7.375 9.75 -11 9 C-12.4375 6.9375 -12.4375 6.9375 -13 5 C-8.7797731 -0.27528362 -6.38501231 -0.54110274 0 0 Z " fill="#8E3F0A" transform="translate(76,8)"/>
<path d="M0 0 C0.66 0 1.32 0 2 0 C2.054138 2.24973447 2.09285491 4.49984383 2.125 6.75 C2.14820312 8.00296875 2.17140625 9.2559375 2.1953125 10.546875 C2.01517816 13.73165019 1.81652212 15.42659367 0 18 C-2.125 18.75 -2.125 18.75 -4 19 C-4 18.01 -4 17.02 -4 16 C-4.99 16 -5.98 16 -7 16 C-6.67 15.01 -6.34 14.02 -6 13 C-5.175 12.649375 -4.35 12.29875 -3.5 11.9375 C-0.79106792 10.26114446 -0.79106792 10.26114446 -0.44921875 7.5859375 C-0.21009707 5.05196151 -0.05250965 2.54433118 0 0 Z " fill="#9A8F30" transform="translate(97,78)"/>
<path d="M0 0 C0.66 0 1.32 0 2 0 C2 0.66 2 1.32 2 2 C2.99 2.33 3.98 2.66 5 3 C5 6.3 5 9.6 5 13 C2.03 13 -0.94 13 -4 13 C-3.67 11.35 -3.34 9.7 -3 8 C-0.03 8.495 -0.03 8.495 3 9 C3 7.68 3 6.36 3 5 C2.34 5 1.68 5 1 5 C0.67 3.35 0.34 1.7 0 0 Z " fill="#93852E" transform="translate(100,123)"/>
<path d="M0 0 C0.66 0 1.32 0 2 0 C2.33 1.65 2.66 3.3 3 5 C3.66 5 4.32 5 5 5 C5.99 7.97 6.98 10.94 8 14 C3.91730319 12.9793258 3.67869214 12.67869214 1 10 C-1.10332891 9.28552357 -1.10332891 9.28552357 -3 9 C-2.34 8.01 -1.68 7.02 -1 6 C-0.60986284 4.0103005 -0.26797351 2.00980131 0 0 Z " fill="#B7B365" transform="translate(25,98)"/>
<path d="M0 0 C5.56890517 0.47986031 10.67067568 1.29915181 16 3 C16 3.33 16 3.66 16 4 C14.02 4 12.04 4 10 4 C10 4.66 10 5.32 10 6 C8.68 6.33 7.36 6.66 6 7 C6 6.67 6 6.34 6 6 C3.03 5.505 3.03 5.505 0 5 C0 3.35 0 1.7 0 0 Z " fill="#9F943E" transform="translate(97,73)"/>
<path d="M0 0 C2.16874252 0.50603992 3.99967627 0.99983813 6 2 C7.0703125 4.6171875 7.0703125 4.6171875 8.125 7.875 C8.47820313 8.94492188 8.83140625 10.01484375 9.1953125 11.1171875 C10 14 10 14 10 17 C9.01 17 8.02 17 7 17 C6.01934513 14.72979898 5.0404231 12.45887746 4.0625 10.1875 C3.78470703 9.54490234 3.50691406 8.90230469 3.22070312 8.24023438 C2.0481189 5.51362285 0.93910451 2.81731354 0 0 Z " fill="#887F3C" transform="translate(19,119)"/>
<path d="M0 0 C6.17647059 1.23529412 6.17647059 1.23529412 9 5 C9.5 7.4375 9.5 7.4375 9 10 C7.68 11.65 6.36 13.3 5 15 C3.35 10.05 1.7 5.1 0 0 Z " fill="#988B30" transform="translate(34,113)"/>
<path d="M0 0 C0.66 0.33 1.32 0.66 2 1 C1.5406054 11.2215298 -0.78289017 21.04878609 -3 31 C-3.33 31 -3.66 31 -4 31 C-4.08126109 28.27022936 -4.14061663 25.5428983 -4.1875 22.8125 C-4.21263672 22.04357422 -4.23777344 21.27464844 -4.26367188 20.48242188 C-4.32577648 15.65896446 -3.77547603 13.07825049 -1 9 C-0.43914436 6.57470084 -0.43914436 6.57470084 -0.3125 4.1875 C-0.24675781 3.39730469 -0.18101563 2.60710937 -0.11328125 1.79296875 C-0.05720703 0.90544922 -0.05720703 0.90544922 0 0 Z " fill="#E5E2C6" transform="translate(84,71)"/>
<path d="M0 0 C3 1 3 1 5 3 C4.55584884 8.77396505 2.57187841 14.4440524 1 20 C0.02391783 17.07175348 -0.08226668 15.04386724 0 12 C-0.33 12 -0.66 12 -1 12 C-1.08159574 7.83861737 -0.98248524 4.0527516 0 0 Z " fill="#EEF2F0" transform="translate(76,87)"/>
<path d="M0 0 C0.66 0 1.32 0 2 0 C1.38722388 2.96175123 0.74627478 4.38058783 -1 7 C0.65 7.33 2.3 7.66 4 8 C3.67 8.99 3.34 9.98 3 11 C-0.3 10.67 -3.6 10.34 -7 10 C-6.95875 9.05125 -6.9175 8.1025 -6.875 7.125 C-6.65026182 3.89755144 -6.65026182 3.89755144 -9 2 C-6.36 2.33 -3.72 2.66 -1 3 C-0.67 2.01 -0.34 1.02 0 0 Z " fill="#AAA065" transform="translate(20,100)"/>
<path d="M0 0 C1.32 0.99 2.64 1.98 4 3 C3.69078116 4.45903258 3.37751201 5.91720722 3.0625 7.375 C2.88847656 8.18710938 2.71445313 8.99921875 2.53515625 9.8359375 C2 12 2 12 1 14 C-0.32 14 -1.64 14 -3 14 C-2.48594831 9.03083364 -1.76615118 4.70973649 0 0 Z " fill="#E7DBCA" transform="translate(64,74)"/>
<path d="M0 0 C0.81791016 0.2165625 0.81791016 0.2165625 1.65234375 0.4375 C5.82904974 1.46561224 9.50253491 2.08978231 13.8125 1.875 C17.22054144 1.76775394 17.72725802 1.78712821 20.5625 4 C21.036875 4.66 21.51125 5.32 22 6 C20.35 6 18.7 6 17 6 C17.66 6.66 18.32 7.32 19 8 C14.44106691 7.22383756 10.53831427 5.64782114 6.3046875 3.83984375 C3.93904322 2.82880885 3.93904322 2.82880885 1 3 C0.67 2.01 0.34 1.02 0 0 Z " fill="#A06034" transform="translate(45,15)"/>
<path d="M0 0 C1.875 0.25 1.875 0.25 4 1 C4.268125 1.66 4.53625 2.32 4.8125 3 C5.4003125 3.99 5.4003125 3.99 6 5 C9.39727382 5.75923729 9.39727382 5.75923729 13 6 C14.33917261 6.30903983 15.67653254 6.62942911 17 7 C15.375 9.0625 15.375 9.0625 13 11 C10.0625 11.1875 10.0625 11.1875 7 10 C5.47968086 8.288079 4.27654884 6.54318611 3.078125 4.59375 C2.0780219 2.83473543 2.0780219 2.83473543 0 2 C0 1.34 0 0.68 0 0 Z " fill="#825333" transform="translate(56,63)"/>
<path d="M0 0 C0.99 0.33 1.98 0.66 3 1 C4.6442351 5.93270529 3.18615592 8.54024193 1 13 C-0.32 13 -1.64 13 -3 13 C-2.343621 8.51474352 -1.29925791 4.33085971 0 0 Z " fill="#B98F79" transform="translate(87,40)"/>
<path d="M0 0 C0.66 0 1.32 0 2 0 C2 0.66 2 1.32 2 2 C2.8353125 2.12375 2.8353125 2.12375 3.6875 2.25 C6.69714206 3.22610013 8.62154752 4.95188814 11 7 C10.67 8.32 10.34 9.64 10 11 C7.09197539 8.78071806 5.04687238 7.07030857 3 4 C1.35 4.33 -0.3 4.66 -2 5 C-1.34 5 -0.68 5 0 5 C0 5.66 0 6.32 0 7 C-1.65 6.67 -3.3 6.34 -5 6 C-4.34 5.67 -3.68 5.34 -3 5 C-3 4.01 -3 3.02 -3 2 C-2.01 2 -1.02 2 0 2 C0 1.34 0 0.68 0 0 Z " fill="#D6B298" transform="translate(13,77)"/>
<path d="M0 0 C0.33 0.66 0.66 1.32 1 2 C1.763125 1.79375 2.52625 1.5875 3.3125 1.375 C6 1 6 1 9 3 C9 3.66 9 4.32 9 5 C8.05125 5.309375 7.1025 5.61875 6.125 5.9375 C3.13919592 6.87394742 3.13919592 6.87394742 1 8 C0.67 7.34 0.34 6.68 0 6 C-1.32 6 -2.64 6 -4 6 C-4.66 4.35 -5.32 2.7 -6 1 C-5.34 1 -4.68 1 -4 1 C-4 1.66 -4 2.32 -4 3 C-3.01 2.67 -2.02 2.34 -1 2 C-0.67 1.34 -0.34 0.68 0 0 Z " fill="#D29E80" transform="translate(59,58)"/>
<path d="M0 0 C0 3 0 3 -1.11328125 4.64453125 C-3.76910733 6.55254709 -5.94990223 6.5134356 -9.1875 6.6875 C-10.27417969 6.75324219 -11.36085937 6.81898437 -12.48046875 6.88671875 C-13.72763672 6.94279297 -13.72763672 6.94279297 -15 7 C-14.67 6.01 -14.34 5.02 -14 4 C-11.61933199 3.12012394 -9.38518099 2.42741106 -6.9375 1.8125 C-6.27427734 1.63525391 -5.61105469 1.45800781 -4.92773438 1.27539062 C-3.28812574 0.83894804 -1.64440762 0.41799781 0 0 Z " fill="#C8BF6C" transform="translate(54,78)"/>
<path d="M0 0 C0.66 0.33 1.32 0.66 2 1 C1.47434759 6.03284224 0.85193433 11.01009894 0 16 C0 16.66 0 17.32 0 18 C-0.66 18.33 -1.32 18.66 -2 19 C-2.66 19.99 -3.32 20.98 -4 22 C-3.51298949 14.40935336 -2.00236413 7.32940833 0 0 Z " fill="#ADA358" transform="translate(85,80)"/>
<path d="M0 0 C0.89203125 0.00902344 1.7840625 0.01804688 2.703125 0.02734375 C3.37859375 0.03894531 4.0540625 0.05054688 4.75 0.0625 C4.75 1.0525 4.75 2.0425 4.75 3.0625 C4.110625 3.35125 3.47125 3.64 2.8125 3.9375 C0.59793921 4.89073451 0.59793921 4.89073451 -0.25 7.0625 C-2.23 7.0625 -4.21 7.0625 -6.25 7.0625 C-5.26 6.0725 -4.27 5.0825 -3.25 4.0625 C-5.4736068 2.7643576 -5.4736068 2.7643576 -9.25 3.0625 C-9.25 2.4025 -9.25 1.7425 -9.25 1.0625 C-6.09493858 0.12630187 -3.28413498 -0.0432123 0 0 Z " fill="#AB7354" transform="translate(69.25,56.9375)"/>
<path d="M0 0 C0.99 0 1.98 0 3 0 C3.0810206 2.10353495 3.13919907 4.20795952 3.1875 6.3125 C3.22230469 7.48425781 3.25710937 8.65601562 3.29296875 9.86328125 C3 13 3 13 1.48828125 14.91796875 C0.99714844 15.27503906 0.50601563 15.63210937 0 16 C-0.91397824 10.31302429 -0.91397824 5.68697571 0 0 Z " fill="#9F402D" transform="translate(68,104)"/>
<path d="M0 0 C0.26554687 0.5878125 0.53109375 1.175625 0.8046875 1.78125 C2.3765364 4.69893031 4.4872983 6.82873505 6.7578125 9.21875 C8 11 8 11 8 15 C4.7 14.34 1.4 13.68 -2 13 C-0.68 12.01 0.64 11.02 2 10 C1.01 7.03 0.02 4.06 -1 1 C-0.67 0.67 -0.34 0.34 0 0 Z " fill="#CD9474" transform="translate(74,25)"/>
<path d="M0 0 C0.66 0 1.32 0 2 0 C2.71273574 5.07824213 3 9.86570757 3 15 C3.2699837 18.0083898 3.61952143 21.0037313 4 24 C-0.12001553 16.10618874 -0.26232802 8.74426718 0 0 Z " fill="#F1EFCB" transform="translate(123,112)"/>
<path d="M0 0 C0.99 0.99 1.98 1.98 3 3 C3.66 2.67 4.32 2.34 5 2 C4.91299202 4.43922361 4.80613998 6.87478414 4.6875 9.3125 C4.66494141 10.00279297 4.64238281 10.69308594 4.61914062 11.40429688 C4.3453392 16.55674183 4.3453392 16.55674183 2.45703125 18.98046875 C1.97621094 19.31691406 1.49539062 19.65335938 1 20 C0.67 18.68 0.34 17.36 0 16 C0.66 16 1.32 16 2 16 C1.34 10.72 0.68 5.44 0 0 Z " fill="#F8F6DD" transform="translate(32,93)"/>
<path d="M0 0 C2.475 0.495 2.475 0.495 5 1 C6.22517308 6.66642551 6.09228867 12.23708518 6 18 C5.67 18 5.34 18 5 18 C4.34 14.37 3.68 10.74 3 7 C2.34 7.99 1.68 8.98 1 10 C0.67 6.7 0.34 3.4 0 0 Z " fill="#5F2A1A" transform="translate(67,88)"/>
<path d="M0 0 C1.8871875 0.0309375 1.8871875 0.0309375 3.8125 0.0625 C3.8125 0.3925 3.8125 0.7225 3.8125 1.0625 C1.5025 1.3925 -0.8075 1.7225 -3.1875 2.0625 C-3.1875 2.7225 -3.1875 3.3825 -3.1875 4.0625 C-0.5475 4.0625 2.0925 4.0625 4.8125 4.0625 C3.8225 5.5475 3.8225 5.5475 2.8125 7.0625 C-0.8125 7.25 -0.8125 7.25 -4.1875 7.0625 C-4.1875 6.0725 -4.1875 5.0825 -4.1875 4.0625 C-5.5075 4.0625 -6.8275 4.0625 -8.1875 4.0625 C-7.8575 3.0725 -7.5275 2.0825 -7.1875 1.0625 C-4.43671116 0.14557039 -2.82801087 -0.04636083 0 0 Z " fill="#8B5E43" transform="translate(73.1875,37.9375)"/>
<path d="M0 0 C0.33 0.99 0.66 1.98 1 3 C0.34 3 -0.32 3 -1 3 C-1 4.65 -1 6.3 -1 8 C-1.99 8.33 -2.98 8.66 -4 9 C-4 7.35 -4 5.7 -4 4 C-5.95216435 5.95216435 -6.84826645 7.53199953 -8 10 C-8.125 3.25 -8.125 3.25 -7 1 C-4.51587793 0.17195931 -2.64779693 0 0 0 Z " fill="#BCB153" transform="translate(98,70)"/>
<path d="M0 0 C5.36742536 0.58445298 8.98838876 1.38234997 12.5625 5.625 C13.39730538 6.73354915 14.21824329 7.85342349 15 9 C14.01 9.33 13.02 9.66 12 10 C12 9.34 12 8.68 12 8 C11.34 8 10.68 8 10 8 C10 7.34 10 6.68 10 6 C6.46588679 3.87953208 3.05606165 3.46800711 -1 3 C-0.67 2.01 -0.34 1.02 0 0 Z " fill="#814128" transform="translate(70,5)"/>
<path d="M0 0 C0.33 0 0.66 0 1 0 C1.85298376 3.67387495 2.10789471 7.0447393 2.0625 10.8125 C2.05347656 11.78832031 2.04445313 12.76414062 2.03515625 13.76953125 C2.02355469 14.50558594 2.01195313 15.24164063 2 16 C1.01 16 0.02 16 -1 16 C-1.02692484 13.70839681 -1.04636124 11.41670454 -1.0625 9.125 C-1.07410156 7.84882812 -1.08570312 6.57265625 -1.09765625 5.2578125 C-1 2 -1 2 0 0 Z " fill="#754535" transform="translate(73,104)"/>
<path d="M0 0 C0.66 0 1.32 0 2 0 C3.60725635 3.21451269 3.05748185 6.43612536 3 10 C1.35 10 -0.3 10 -2 10 C-1.125 2.25 -1.125 2.25 0 0 Z " fill="#C8BC5C" transform="translate(54,82)"/>
<path d="M0 0 C0.98613281 0.03480469 1.97226563 0.06960937 2.98828125 0.10546875 C3.98214844 0.13253906 4.97601563 0.15960938 6 0.1875 C7.13888672 0.23970703 7.13888672 0.23970703 8.30078125 0.29296875 C8.30078125 1.28296875 8.30078125 2.27296875 8.30078125 3.29296875 C3.68078125 3.29296875 -0.93921875 3.29296875 -5.69921875 3.29296875 C-2.69921875 0.29296875 -2.69921875 0.29296875 0 0 Z " fill="#A89B3D" transform="translate(112.69921875,132.70703125)"/>
<path d="M0 0 C0.66 0 1.32 0 2 0 C2.02705729 1.77074917 2.04642195 3.54161711 2.0625 5.3125 C2.07410156 6.29863281 2.08570313 7.28476563 2.09765625 8.30078125 C2 11 2 11 1 14 C0.34 14 -0.32 14 -1 14 C-1.02685938 11.85423363 -1.04633088 9.70837355 -1.0625 7.5625 C-1.07410156 6.36753906 -1.08570313 5.17257813 -1.09765625 3.94140625 C-1 1 -1 1 0 0 Z " fill="#9A964B" transform="translate(54,122)"/>
<path d="M0 0 C0.66 0.33 1.32 0.66 2 1 C1.67 3.97 1.34 6.94 1 10 C0.34 9.34 -0.32 8.68 -1 8 C-1.33 9.65 -1.66 11.3 -2 13 C-2.66 13 -3.32 13 -4 13 C-4.29296875 6.9453125 -4.29296875 6.9453125 -4 5 C-3.01 4.34 -2.02 3.68 -1 3 C-0.67 2.01 -0.34 1.02 0 0 Z " fill="#F2F0F2" transform="translate(63,115)"/>
<path d="M0 0 C3 3.75 3 3.75 3 6 C4.32 6 5.64 6 7 6 C7.33 5.34 7.66 4.68 8 4 C8.99 4.99 9.98 5.98 11 7 C10.67 7.99 10.34 8.98 10 10 C9.443125 9.71125 8.88625 9.4225 8.3125 9.125 C3.37528391 6.70247916 3.37528391 6.70247916 -2 6 C-1.67 5.34 -1.34 4.68 -1 4 C-0.64830932 2.67139075 -0.31229724 1.33841672 0 0 Z " fill="#E1A983" transform="translate(8,92)"/>
<path d="M0 0 C0 0.66 0 1.32 0 2 C-0.66 2 -1.32 2 -2 2 C-2 2.66 -2 3.32 -2 4 C-2.66 4 -3.32 4 -4 4 C-4 4.66 -4 5.32 -4 6 C-5.25 7.625 -5.25 7.625 -7 9 C-8.32 9 -9.64 9 -11 9 C-11 7.68 -11 6.36 -11 5 C-10.401875 4.896875 -9.80375 4.79375 -9.1875 4.6875 C-6.69130983 3.90298309 -5.74268135 2.90110692 -4 1 C-2 0 -2 0 0 0 Z " fill="#B08370" transform="translate(79,70)"/>
<path d="M0 0 C0.66 0 1.32 0 2 0 C3.33333333 1.33333333 4.66666667 2.66666667 6 4 C5.34 4 4.68 4 4 4 C4.33 7.3 4.66 10.6 5 14 C4.34 14 3.68 14 3 14 C-0.44419134 4.58997722 -0.44419134 4.58997722 0 0 Z " fill="#D8BCA3" transform="translate(49,45)"/>
<path d="M0 0 C0.33 0 0.66 0 1 0 C1.33 1.65 1.66 3.3 2 5 C2.33 5 2.66 5 3 5 C3 7.31 3 9.62 3 12 C2.67 10.68 2.34 9.36 2 8 C1.34 8 0.68 8 0 8 C0 9.65 0 11.3 0 13 C-0.99 12.67 -1.98 12.34 -3 12 C-2.01 8.04 -1.02 4.08 0 0 Z " fill="#8A8137" transform="translate(44,123)"/>
<path d="M0 0 C0.33 0 0.66 0 1 0 C1 6.27 1 12.54 1 19 C0.34 19 -0.32 19 -1 19 C-1.98248524 14.9472484 -2.08159574 11.16138263 -2 7 C-1.67 7 -1.34 7 -1 7 C-0.67 4.69 -0.34 2.38 0 0 Z " fill="#C5B49A" transform="translate(77,117)"/>
<path d="M0 0 C0.33 0 0.66 0 1 0 C1.33611568 2.10372401 1.66879946 4.20799657 2 6.3125 C2.185625 7.48425781 2.37125 8.65601562 2.5625 9.86328125 C3 13 3 13 3 16 C1.68 16 0.36 16 -1 16 C-0.67 10.72 -0.34 5.44 0 0 Z " fill="#6D5E0B" transform="translate(105,115)"/>
<path d="M0 0 C0.33 0 0.66 0 1 0 C1.22537111 3.12401779 1.42738648 6.24911333 1.625 9.375 C1.68945312 10.26445313 1.75390625 11.15390625 1.8203125 12.0703125 C1.871875 12.92109375 1.9234375 13.771875 1.9765625 14.6484375 C2.02893066 15.43395996 2.08129883 16.21948242 2.13525391 17.02880859 C2 19 2 19 0 21 C-0.99 19.68 -1.98 18.36 -3 17 C-2.68289062 16.47921875 -2.36578125 15.9584375 -2.0390625 15.421875 C-0.71079489 12.32591291 -0.57635753 9.60595879 -0.375 6.25 C-0.30023438 5.07953125 -0.22546875 3.9090625 -0.1484375 2.703125 C-0.09945312 1.81109375 -0.05046875 0.9190625 0 0 Z " fill="#928A42" transform="translate(122,107)"/>
<path d="M0 0 C-0.375 2.9375 -0.375 2.9375 -1 6 C-3.70879335 7.35439668 -6.00933268 7.06501451 -9 7 C-8.01 6.34 -7.02 5.68 -6 5 C-6 3.68 -6 2.36 -6 1 C-4 0 -4 0 0 0 Z " fill="#E7B18D" transform="translate(75,60)"/>
<path d="M0 0 C0.66 0.33 1.32 0.66 2 1 C2.625 3.0625 2.625 3.0625 3 5 C1.35 6.32 -0.3 7.64 -2 9 C-2.66 6.69 -3.32 4.38 -4 2 C-3.34 1.67 -2.68 1.34 -2 1 C-1.34 1.33 -0.68 1.66 0 2 C0 1.34 0 0.68 0 0 Z " fill="#95852D" transform="translate(23,109)"/>
<path d="M0 0 C1.01299606 2.65602626 1.07672553 3.78395707 0.109375 6.5078125 C-0.33921875 7.37148437 -0.7878125 8.23515625 -1.25 9.125 C-1.68828125 9.99382812 -2.1265625 10.86265625 -2.578125 11.7578125 C-4 14 -4 14 -7 16 C-5.60668753 10.04675579 -3.11464243 5.24258516 0 0 Z " fill="#9B8F2D" transform="translate(94,98)"/>
<path d="M0 0 C0.66 0.33 1.32 0.66 2 1 C0.25 8.75 0.25 8.75 -2 11 C-4.625 11.125 -4.625 11.125 -7 11 C-6.34 10.67 -5.68 10.34 -5 10 C-3.99083967 8.23408113 -3.99083967 8.23408113 -3 6 C-2 4 -1 2 0 0 Z " fill="#EADABF" transform="translate(24,97)"/>
<path d="M0 0 C1.8125 0.125 1.8125 0.125 4 1 C5.8125 3.875 5.8125 3.875 7 7 C6.67 7.99 6.34 8.98 6 10 C6 9.34 6 8.68 6 8 C5.01 7.67 4.02 7.34 3 7 C1.3125 5.6875 1.3125 5.6875 0 4 C0 2.68 0 1.36 0 0 Z " fill="#B9AC4E" transform="translate(30,112)"/>
<path d="M0 0 C2.875 -0.125 2.875 -0.125 6 0 C6.66 0.66 7.32 1.32 8 2 C7.625 5.625 7.625 5.625 7 9 C6.01 9 5.02 9 4 9 C4.33 6.36 4.66 3.72 5 1 C3.35 1.33 1.7 1.66 0 2 C0 1.34 0 0.68 0 0 Z " fill="#6A3424" transform="translate(67,79)"/>
<path d="M0 0 C0.66 0.99 1.32 1.98 2 3 C1.09507813 3.09087891 1.09507813 3.09087891 0.171875 3.18359375 C-1.02695313 3.30927734 -1.02695313 3.30927734 -2.25 3.4375 C-3.03890625 3.51871094 -3.8278125 3.59992188 -4.640625 3.68359375 C-6.82364639 3.97634993 -8.8773182 4.42064419 -11 5 C-11 4.34 -11 3.68 -11 3 C-7.33877035 0.20023615 -4.58187498 -0.61091666 0 0 Z " fill="#AEA043" transform="translate(119,127)"/>
<path d="M0 0 C0.33 0.66 0.66 1.32 1 2 C2.32 2 3.64 2 5 2 C6.49821059 5.37097383 7 7.20442119 7 11 C6.34 11 5.68 11 5 11 C4.67 9.35 4.34 7.7 4 6 C3.01 5.67 2.02 5.34 1 5 C1 4.34 1 3.68 1 3 C0.01 3.33 -0.98 3.66 -2 4 C-1.34 2.68 -0.68 1.36 0 0 Z " fill="#ECC29C" transform="translate(7,84)"/>
<path d="M0 0 C1.35439668 2.70879335 1.06501451 5.00933268 1 8 C1.66 8.33 2.32 8.66 3 9 C2.34 10.98 1.68 12.96 1 15 C-0.32 14.01 -1.64 13.02 -3 12 C-2.69230293 10.18667846 -2.37870936 8.37435655 -2.0625 6.5625 C-1.80146484 5.04849609 -1.80146484 5.04849609 -1.53515625 3.50390625 C-1 1 -1 1 0 0 Z " fill="#ECE0D0" transform="translate(86,54)"/>
<path d="M0 0 C6.4 0.49230769 6.4 0.49230769 9.4375 3.0625 C10.2109375 4.0215625 10.2109375 4.0215625 11 5 C10.01 5.66 9.02 6.32 8 7 C7.67 6.67 7.34 6.34 7 6 C6.01 6.495 6.01 6.495 5 7 C5 5.68 5 4.36 5 3 C2.03 2.505 2.03 2.505 -1 2 C-0.67 1.34 -0.34 0.68 0 0 Z " fill="#73462A" transform="translate(50,40)"/>
<path d="M0 0 C0.33 0 0.66 0 1 0 C1.19672365 1.72814161 1.38196799 3.45759197 1.5625 5.1875 C1.66691406 6.15042969 1.77132812 7.11335938 1.87890625 8.10546875 C1.99833535 10.96020953 1.68115733 13.23752861 1 16 C0.814375 16.763125 0.62875 17.52625 0.4375 18.3125 C0.293125 18.869375 0.14875 19.42625 0 20 C-0.66 20 -1.32 20 -2 20 C-1.34 13.4 -0.68 6.8 0 0 Z " fill="#CFBDB7" transform="translate(94,23)"/>
<path d="M0 0 C0.93065133 2.60582371 1.14917407 3.64198224 0.0625 6.25 C-0.4634375 7.11625 -0.4634375 7.11625 -1 8 C-1.66 8 -2.32 8 -3 8 C-2.67 8.99 -2.34 9.98 -2 11 C-2.66 11.99 -3.32 12.98 -4 14 C-4 10.37 -4 6.74 -4 3 C-3.34 2.67 -2.68 2.34 -2 2 C-1.34 2.33 -0.68 2.66 0 3 C0 2.01 0 1.02 0 0 Z " fill="#A79A39" transform="translate(83,117)"/>
<path d="M0 0 C0.66 0.33 1.32 0.66 2 1 C2.05386629 3.12472576 2.09273071 5.24983652 2.125 7.375 C2.14820312 8.55835937 2.17140625 9.74171875 2.1953125 10.9609375 C2 14 2 14 0 16 C-0.19504458 13.89651926 -0.38078496 11.79217415 -0.5625 9.6875 C-0.66691406 8.51574219 -0.77132812 7.34398438 -0.87890625 6.13671875 C-1 3 -1 3 0 0 Z " fill="#96892B" transform="translate(104,88)"/>
<path d="M0 0 C0.66 0.33 1.32 0.66 2 1 C2 2.65 2 4.3 2 6 C2.66 6 3.32 6 4 6 C4 6.99 4 7.98 4 9 C3.01 9 2.02 9 1 9 C0.67 10.65 0.34 12.3 0 14 C-0.33 14 -0.66 14 -1 14 C-1.08333357 9.1666528 -0.95261487 4.76307437 0 0 Z " fill="#A39639" transform="translate(47,111)"/>
<path d="M0 0 C2.0625 0.4375 2.0625 0.4375 4 1 C3.979375 1.9075 3.95875 2.815 3.9375 3.75 C3.9889755 6.42672588 4.2215017 8.46988052 5 11 C4.01 11.66 3.02 12.32 2 13 C1.92652344 12.07767578 1.92652344 12.07767578 1.8515625 11.13671875 C1.77679688 10.32847656 1.70203125 9.52023438 1.625 8.6875 C1.55539062 7.88699219 1.48578125 7.08648437 1.4140625 6.26171875 C1.10435574 3.72775559 1.10435574 3.72775559 -1 1 C-0.67 0.67 -0.34 0.34 0 0 Z " fill="#F4EED7" transform="translate(10,103)"/>
<path d="M0 0 C0.66 0.33 1.32 0.66 2 1 C1.34 4.96 0.68 8.92 0 13 C-2.11964808 8.76070385 -2.34377794 6.64100213 -2 2 C-1.34 1.34 -0.68 0.68 0 0 Z " fill="#B8AB4E" transform="translate(116,95)"/>
<path d="M0 0 C1.25541557 3.76624671 0.37061958 5.37188934 -1 9 C-1.61875 8.34 -2.2375 7.68 -2.875 7 C-4.75637427 4.7715451 -4.75637427 4.7715451 -7 5 C-7 4.01 -7 3.02 -7 2 C-4.69 1.34 -2.38 0.68 0 0 Z " fill="#ADA039" transform="translate(52,84)"/>
<path d="M0 0 C3.99996286 1.33332095 4.83782337 3.4957827 7 7 C3.25 10 3.25 10 1 10 C1.20625 9.46375 1.4125 8.9275 1.625 8.375 C2.1314747 5.16732692 1.15400225 2.98682934 0 0 Z " fill="#F8EDE0" transform="translate(56,65)"/>
<path d="M0 0 C0.33 0.66 0.66 1.32 1 2 C0.06421005 4.35981813 -0.93347808 6.69631264 -2 9 C-2.66 9 -3.32 9 -4 9 C-4.6875 6.6875 -4.6875 6.6875 -5 4 C-3.48656345 1.9820846 -2.25060133 1.12530066 0 0 Z " fill="#89542E" transform="translate(81,60)"/>
<path d="M0 0 C1 3 1 3 0 6 C-0.35236497 7.99673484 -0.68834559 9.99650739 -1 12 C-1.33 12 -1.66 12 -2 12 C-2.433125 10.576875 -2.433125 10.576875 -2.875 9.125 C-3.76825109 5.94788422 -3.76825109 5.94788422 -6 4 C-5.67 3.01 -5.34 2.02 -5 1 C-4.34 1.66 -3.68 2.32 -3 3 C-2.01 2.01 -1.02 1.02 0 0 Z " fill="#D0D0D3" transform="translate(81,81)"/>
<path d="M0 0 C1.98 0 3.96 0 6 0 C8.125 4.625 8.125 4.625 7 8 C7 7.34 7 6.68 7 6 C6.34 6 5.68 6 5 6 C4.67 5.34 4.34 4.68 4 4 C1.98330173 2.86649466 1.98330173 2.86649466 0 2 C0 1.34 0 0.68 0 0 Z " fill="#B0A968" transform="translate(112,75)"/>
<path d="M0 0 C1.485 0.99 1.485 0.99 3 2 C5.11280345 2.63292383 5.11280345 2.63292383 7 3 C7.33 4.32 7.66 5.64 8 7 C7.34 7 6.68 7 6 7 C6 6.34 6 5.68 6 5 C5.21625 5.185625 4.4325 5.37125 3.625 5.5625 C1 6 1 6 -1 5 C-0.67 3.35 -0.34 1.7 0 0 Z " fill="#5F281A" transform="translate(48,22)"/>
<path d="M0 0 C0 0.66 0 1.32 0 2 C-2.93945984 3.46972992 -5.74955436 3 -9 3 C-9.99 3.495 -9.99 3.495 -11 4 C-10.67 2.68 -10.34 1.36 -10 0 C-6.33694766 -0.74926071 -3.57644848 -1.2380014 0 0 Z " fill="#7B3D17" transform="translate(58,20)"/>
<path d="M0 0 C0.33 0 0.66 0 1 0 C1 5.28 1 10.56 1 16 C0.01 16 -0.98 16 -2 16 C-1.34 10.72 -0.68 5.44 0 0 Z " fill="#D2D1AF" transform="translate(57,120)"/>
<path d="M0 0 C4 8 4 8 4 12 C2.68 12 1.36 12 0 12 C0 8.04 0 4.08 0 0 Z " fill="#6A1B14" transform="translate(65,124)"/>
<path d="M0 0 C0.33 0 0.66 0 1 0 C1.16874707 1.91648462 1.33491643 3.83319633 1.5 5.75 C1.5928125 6.81734375 1.685625 7.8846875 1.78125 8.984375 C2.08727675 13.2031724 1.91422545 16.88598547 1 21 C0.67 21 0.34 21 0 21 C0 14.07 0 7.14 0 0 Z " fill="#F0F4E7" transform="translate(61,88)"/>
<path d="M0 0 C0.33 0 0.66 0 1 0 C1 2.64 1 5.28 1 8 C1.9590625 8.2165625 1.9590625 8.2165625 2.9375 8.4375 C5 9 5 9 6 10 C6.04063832 11.66617115 6.042721 13.33388095 6 15 C5.34 15 4.68 15 4 15 C3.71125 14.195625 3.4225 13.39125 3.125 12.5625 C2.26737432 9.8673532 2.26737432 9.8673532 0 9 C0 6.03 0 3.06 0 0 Z " fill="#FAF3DE" transform="translate(24,88)"/>
<path d="M0 0 C2.475 0.99 2.475 0.99 5 2 C4.01 4.97 3.02 7.94 2 11 C1.67 11 1.34 11 1 11 C-1 4.375 -1 4.375 -1 1 C-0.67 0.67 -0.34 0.34 0 0 Z " fill="#5C362E" transform="translate(43,27)"/>
<path d="M0 0 C2.97 0.99 5.94 1.98 9 3 C8.67 4.32 8.34 5.64 8 7 C4.2047869 5.50902342 2.38957269 3.24299151 0 0 Z " fill="#F1DED4" transform="translate(79,7)"/>
<path d="M0 0 C-1.97420135 2.52259061 -2.96745642 2.9929808 -6.1875 3.6875 C-7.5796875 3.8421875 -7.5796875 3.8421875 -9 4 C-8.67 2.68 -8.34 1.36 -8 0 C-4.71303767 -0.79953138 -3.28976808 -1.09658936 0 0 Z " fill="#FAF9DB" transform="translate(57,76)"/>
<path d="M0 0 C0.66 0.33 1.32 0.66 2 1 C1.67 2.98 1.34 4.96 1 7 C2.32 7.33 3.64 7.66 5 8 C4.34 9.32 3.68 10.64 3 12 C2.67 11.01 2.34 10.02 2 9 C1.34 9 0.68 9 0 9 C-1.125 3.375 -1.125 3.375 0 0 Z " fill="#F7F3EC" transform="translate(87,53)"/>
<path d="M0 0 C0.33 0.99 0.66 1.98 1 3 C1.66 2.01 2.32 1.02 3 0 C3 0.99 3 1.98 3 3 C3.66 3.33 4.32 3.66 5 4 C4.01 5.485 4.01 5.485 3 7 C2.01 7 1.02 7 0 7 C-0.66 5.35 -1.32 3.7 -2 2 C-1.34 1.34 -0.68 0.68 0 0 Z " fill="#E9B691" transform="translate(55,54)"/>
<path d="M0 0 C0.33 0.66 0.66 1.32 1 2 C1.66 2 2.32 2 3 2 C3 1.34 3 0.68 3 0 C3.66 0 4.32 0 5 0 C5 0.66 5 1.32 5 2 C6.32 2.33 7.64 2.66 9 3 C7.41693353 3.16918268 5.83353281 3.33523936 4.25 3.5 C3.36828125 3.5928125 2.4865625 3.685625 1.578125 3.78125 C-1 4 -1 4 -5 4 C-4.67 3.34 -4.34 2.68 -4 2 C-2.68 2 -1.36 2 0 2 C0 1.34 0 0.68 0 0 Z " fill="#CA9370" transform="translate(65,54)"/>
<path d="M0 0 C6.15234375 0.5859375 6.15234375 0.5859375 8 1 C8.33 1.66 8.66 2.32 9 3 C6.36 3.66 3.72 4.32 1 5 C1 4.34 1 3.68 1 3 C0.34 2.67 -0.32 2.34 -1 2 C-0.67 1.34 -0.34 0.68 0 0 Z " fill="#E8B591" transform="translate(67,34)"/>
<path d="M0 0 C0.33 0 0.66 0 1 0 C1 3.3 1 6.6 1 10 C0.34 10 -0.32 10 -1 10 C-2.4606285 7.35261084 -3 6.10551666 -3 3 C-2.34 3 -1.68 3 -1 3 C-0.67 2.01 -0.34 1.02 0 0 Z " fill="#5A2E16" transform="translate(93,22)"/>
<path d="M0 0 C0.90492187 0.38285156 1.80984375 0.76570313 2.7421875 1.16015625 C4.10730469 1.73056641 4.10730469 1.73056641 5.5 2.3125 C6.19867188 2.61285156 6.89734375 2.91320312 7.6171875 3.22265625 C7.6171875 3.88265625 7.6171875 4.54265625 7.6171875 5.22265625 C1.6171875 3.72265625 1.6171875 3.72265625 -4.3828125 2.22265625 C-4.3828125 1.56265625 -4.3828125 0.90265625 -4.3828125 0.22265625 C-2.3828125 -0.77734375 -2.3828125 -0.77734375 0 0 Z " fill="#6B2D08" transform="translate(60.3828125,21.77734375)"/>
<path d="M0 0 C2.375 0.3125 2.375 0.3125 5 1 C5.66 1.99 6.32 2.98 7 4 C6.67 4.99 6.34 5.98 6 7 C4.125 6.875 4.125 6.875 2 6 C0.75 2.9375 0.75 2.9375 0 0 Z " fill="#877A1E" transform="translate(34,113)"/>
<path d="M0 0 C0.66 0.33 1.32 0.66 2 1 C1.88529863 2.75070517 1.75780972 4.50057536 1.625 6.25 C1.55539063 7.22453125 1.48578125 8.1990625 1.4140625 9.203125 C1.01534751 11.89633189 0.36492937 13.66963279 -1 16 C-1.38133299 14.0085944 -1.71325582 12.00720923 -2 10 C-1.67 9.67 -1.34 9.34 -1 9 C-0.76807135 7.48530552 -0.58784762 5.96245438 -0.4375 4.4375 C-0.35371094 3.61121094 -0.26992187 2.78492187 -0.18359375 1.93359375 C-0.12300781 1.29550781 -0.06242187 0.65742187 0 0 Z " fill="#DCD8B9" transform="translate(84,71)"/>
<path d="M0 0 C1.42944945 2.35438733 2.08661261 3.48032433 1.625 6.25 C1.41875 6.8275 1.2125 7.405 1 8 C0.34 8 -0.32 8 -1 8 C-2.38938077 6.03852126 -3.7260411 4.03833424 -5 2 C-4.01 1.67 -3.02 1.34 -2 1 C-2 1.66 -2 2.32 -2 3 C-1.34 3 -0.68 3 0 3 C0 2.01 0 1.02 0 0 Z " fill="#F7F0E9" transform="translate(94,13)"/>
<path d="M0 0 C0.66 0.33 1.32 0.66 2 1 C1.67 1.66 1.34 2.32 1 3 C1.66 3.33 2.32 3.66 3 4 C2.67 4.99 2.34 5.98 2 7 C-0.97 6.505 -0.97 6.505 -4 6 C-4 5.01 -4 4.02 -4 3 C-2 1.3125 -2 1.3125 0 0 Z " fill="#F2EDE8" transform="translate(77,0)"/>
<path d="M0 0 C0.66 0 1.32 0 2 0 C2.26785714 8.03571429 2.26785714 8.03571429 0 12 C-0.19401633 10.18818595 -0.38004375 8.37551468 -0.5625 6.5625 C-0.66691406 5.55316406 -0.77132812 4.54382813 -0.87890625 3.50390625 C-0.91886719 2.67761719 -0.95882812 1.85132812 -1 1 C-0.67 0.67 -0.34 0.34 0 0 Z " fill="#C1BA54" transform="translate(55,108)"/>
<path d="M0 0 C0.66 0 1.32 0 2 0 C1.67 3.3 1.34 6.6 1 10 C0.01 10.33 -0.98 10.66 -2 11 C-1.85892253 9.54119891 -1.71197585 8.08296449 -1.5625 6.625 C-1.48128906 5.81289062 -1.40007812 5.00078125 -1.31640625 4.1640625 C-1 2 -1 2 0 0 Z " fill="#BDB56E" transform="translate(80,102)"/>
<path d="M0 0 C0.99 0 1.98 0 3 0 C4.42857143 8.57142857 4.42857143 8.57142857 2 12 C0.78306124 9.56612247 0.68040104 7.58161154 0.4375 4.875 C0.35371094 3.96492188 0.26992188 3.05484375 0.18359375 2.1171875 C0.12300781 1.41851562 0.06242187 0.71984375 0 0 Z " fill="#A09134" transform="translate(47,88)"/>
<path d="M0 0 C3 2 3 2 3.6875 4.125 C3.790625 4.74375 3.89375 5.3625 4 6 C3.34 6 2.68 6 2 6 C2 5.34 2 4.68 2 4 C1.34 4 0.68 4 0 4 C0 4.66 0 5.32 0 6 C-0.99 6 -1.98 6 -3 6 C-2.42655063 3.13275314 -2.1385485 2.1385485 0 0 Z " fill="#F8EFE6" transform="translate(13,73)"/>
<path d="M0 0 C3.26954202 0.56371414 4.82575883 1.49962266 7 4 C5.35 4 3.7 4 2 4 C2.66 4.66 3.32 5.32 4 6 C2.35 5.67 0.7 5.34 -1 5 C-0.67 3.35 -0.34 1.7 0 0 Z " fill="#A25920" transform="translate(60,17)"/>
<path d="M0 0 C1.32 0 2.64 0 4 0 C4 1.32 4 2.64 4 4 C2.35 4.66 0.7 5.32 -1 6 C-1.33 4.68 -1.66 3.36 -2 2 C-1.34 2 -0.68 2 0 2 C0 1.34 0 0.68 0 0 Z " fill="#B2AB47" transform="translate(38,104)"/>
<path d="M0 0 C-0.33 1.98 -0.66 3.96 -1 6 C-1.66 6 -2.32 6 -3 6 C-4.625 3.5 -4.625 3.5 -6 1 C-4 0 -4 0 0 0 Z " fill="#994E2D" transform="translate(72,80)"/>
<path d="M0 0 C0.66 0 1.32 0 2 0 C2 0.99 2 1.98 2 3 C1.34 3 0.68 3 0 3 C-1.88391785 6.26545761 -2.49287967 9.28111761 -3 13 C-3.33 13 -3.66 13 -4 13 C-4.45374191 7.32822615 -3.65083143 4.4024732 0 0 Z " fill="#FDF2E1" transform="translate(8,79)"/>
<path d="M0 0 C0.99 0 1.98 0 3 0 C3 1.98 3 3.96 3 6 C2.01 6.495 2.01 6.495 1 7 C1 6.34 1 5.68 1 5 C0.34 5 -0.32 5 -1 5 C-1.33 4.01 -1.66 3.02 -2 2 C-1.34 1.34 -0.68 0.68 0 0 Z " fill="#E5EAE2" transform="translate(81,74)"/>
<path d="M0 0 C0 0.66 0 1.32 0 2 C-2.97 2 -5.94 2 -9 2 C-9 1.34 -9 0.68 -9 0 C-5.93109813 -1.53445094 -3.29905734 -0.54984289 0 0 Z " fill="#D1A187" transform="translate(79,40)"/>
<path d="M0 0 C2.89932357 2.39509338 3.50168276 4.31245243 4 8 C3.01 8 2.02 8 1 8 C0.34 5.69 -0.32 3.38 -1 1 C-0.67 0.67 -0.34 0.34 0 0 Z " fill="#7C753D" transform="translate(25,128)"/>
<path d="M0 0 C3 0 3 0 6 2 C5.67 3.65 5.34 5.3 5 7 C3.29115995 5.37660195 1.62553283 3.70680947 0 2 C0 1.34 0 0.68 0 0 Z " fill="#9C8E34" transform="translate(29,120)"/>
<path d="M0 0 C0.66 0 1.32 0 2 0 C1.65380961 2.59642796 1.33654288 3.71331532 -0.6875 5.4375 C-4.15266077 6.28037694 -6.03219508 4.7537029 -9 3 C-5.71023192 1.90341064 -4.28696233 2.20046862 -1 3 C-0.67 2.01 -0.34 1.02 0 0 Z " fill="#9D765D" transform="translate(20,100)"/>
<path d="M0 0 C0.33 0.66 0.66 1.32 1 2 C3.52733235 2.65555119 3.52733235 2.65555119 6 3 C5.67 3.99 5.34 4.98 5 6 C3.68 6 2.36 6 1 6 C0.34 4.35 -0.32 2.7 -1 1 C-0.67 0.67 -0.34 0.34 0 0 Z " fill="#C49A7F" transform="translate(9,97)"/>
<path d="M0 0 C2.05078125 0.03255208 4.1015625 0.06510417 6.15234375 0.09765625 C5.82234375 1.08765625 5.49234375 2.07765625 5.15234375 3.09765625 C3.33984375 3.97265625 3.33984375 3.97265625 1.15234375 4.09765625 C-1.09765625 2.66015625 -1.09765625 2.66015625 -2.84765625 1.09765625 C-1.84765625 0.09765625 -1.84765625 0.09765625 0 0 Z " fill="#F9FDFE" transform="translate(70.84765625,-0.09765625)"/>
<path d="M0 0 C0.66 0 1.32 0 2 0 C2.33 0.66 2.66 1.32 3 2 C3.99 2 4.98 2 6 2 C6 2.99 6 3.98 6 5 C4.02 5 2.04 5 0 5 C0 3.35 0 1.7 0 0 Z " fill="#B0A55D" transform="translate(44,131)"/>
<path d="M0 0 C2.83328987 2.83328987 3.7191375 4.35446828 5 8 C4.01 8.66 3.02 9.32 2 10 C1.34 6.7 0.68 3.4 0 0 Z " fill="#F5F2D9" transform="translate(15,114)"/>
<path d="M0 0 C2.6855594 2.6855594 3.06049974 5.37621328 4 9 C2.68 8.67 1.36 8.34 0 8 C0 5.36 0 2.72 0 0 Z " fill="#CBC279" transform="translate(29,103)"/>
<path d="M0 0 C0 2.31 0 4.62 0 7 C-0.99 7.33 -1.98 7.66 -3 8 C-3 5.69 -3 3.38 -3 1 C-1 0 -1 0 0 0 Z " fill="#D0A483" transform="translate(24,87)"/>
<path d="M0 0 C0.33 0.66 0.66 1.32 1 2 C1.99 1.67 2.98 1.34 4 1 C4 2.65 4 4.3 4 6 C3.01 6 2.02 6 1 6 C0.67 6.66 0.34 7.32 0 8 C0 5.36 0 2.72 0 0 Z " fill="#EBEDEF" transform="translate(62,86)"/>
<path d="M0 0 C1.65 1.65 3.3 3.3 5 5 C3.02 5.99 3.02 5.99 1 7 C0 6 0 6 -0.0625 2.9375 C-0.041875 1.968125 -0.02125 0.99875 0 0 Z " fill="#A7964D" transform="translate(88,63)"/>
<path d="M0 0 C1.875 0.25 1.875 0.25 4 1 C5.125 3 5.125 3 6 5 C6.66 5.33 7.32 5.66 8 6 C7.67 6.99 7.34 7.98 7 9 C5.14453125 6.70507812 5.14453125 6.70507812 3.2890625 4.41015625 C2.0333609 2.86733563 2.0333609 2.86733563 0 2 C0 1.34 0 0.68 0 0 Z " fill="#886654" transform="translate(56,63)"/>
<path d="M0 0 C1.125 1.75 1.125 1.75 2 4 C1.125 6.25 1.125 6.25 0 8 C-0.99 8 -1.98 8 -3 8 C-1.125 2.25 -1.125 2.25 0 0 Z " fill="#FAEFE4" transform="translate(91,44)"/>
<path d="M0 0 C0.66 0.66 1.32 1.32 2 2 C2.99 1.67 3.98 1.34 5 1 C5.99 1.99 6.98 2.98 8 4 C7.401875 4.144375 6.80375 4.28875 6.1875 4.4375 C4.43849596 4.8872439 2.71322977 5.42892341 1 6 C0.67 4.02 0.34 2.04 0 0 Z " fill="#6C4037" transform="translate(39,21)"/>
<path d="M0 0 C1.41377341 2.63904371 2.37240135 5.07120629 3 8 C1.68 7.67 0.36 7.34 -1 7 C-1.625 5.1875 -1.625 5.1875 -2 3 C-1.34 2.01 -0.68 1.02 0 0 Z " fill="#817517" transform="translate(32,128)"/>
<path d="M0 0 C2.76276177 0.52268466 5.3260876 1.10869587 8 2 C8 2.99 8 3.98 8 5 C6.35 5 4.7 5 3 5 C2.67 4.01 2.34 3.02 2 2 C1.34 1.34 0.68 0.68 0 0 Z " fill="#807B2A" transform="translate(118,131)"/>
<path d="M0 0 C2 2 2 2 2 4 C1.68521554 5.33783393 1.35412344 6.67203709 1 8 C0.34 8 -0.32 8 -1 8 C-1.33 5.69 -1.66 3.38 -2 1 C-1.34 0.67 -0.68 0.34 0 0 Z " fill="#867824" transform="translate(30,128)"/>
<path d="M0 0 C1.98 0.495 1.98 0.495 4 1 C4 1.99 4 2.98 4 4 C3.360625 4.12375 2.72125 4.2475 2.0625 4.375 C1.0415625 4.684375 1.0415625 4.684375 0 5 C-0.33 5.66 -0.66 6.32 -1 7 C-0.67 4.69 -0.34 2.38 0 0 Z " fill="#B2A740" transform="translate(90,96)"/>
<path d="M0 0 C0.66 0 1.32 0 2 0 C1.67 3.63 1.34 7.26 1 11 C-1.78637633 6.8204355 -0.79562512 4.85331323 0 0 Z " fill="#ACA75A" transform="translate(59,88)"/>
<path d="M0 0 C0.66 0.33 1.32 0.66 2 1 C2 1.99 2 2.98 2 4 C0.68 4.33 -0.64 4.66 -2 5 C-1.34 5 -0.68 5 0 5 C0 5.66 0 6.32 0 7 C-1.65 6.67 -3.3 6.34 -5 6 C-4.34 5.67 -3.68 5.34 -3 5 C-3 4.01 -3 3.02 -3 2 C-2.01 2 -1.02 2 0 2 C0 1.34 0 0.68 0 0 Z " fill="#DEC0A5" transform="translate(13,77)"/>
<path d="M0 0 C4.95 0.99 4.95 0.99 10 2 C9.34 2.66 8.68 3.32 8 4 C4.375 3.625 4.375 3.625 1 3 C0.67 2.01 0.34 1.02 0 0 Z " fill="#F9F5D5" transform="translate(98,70)"/>
<path d="M0 0 C-3.51187196 2.40814077 -5.72656908 3.36629408 -10 3 C-10 2.34 -10 1.68 -10 1 C-8.71073008 0.63720544 -7.41846728 0.28503302 -6.125 -0.0625 C-5.40570313 -0.25972656 -4.68640625 -0.45695312 -3.9453125 -0.66015625 C-2 -1 -2 -1 0 0 Z " fill="#C99571" transform="translate(74,67)"/>
<path d="M0 0 C0.66 0.33 1.32 0.66 2 1 C1.67 2.32 1.34 3.64 1 5 C0.360625 5.12375 -0.27875 5.2475 -0.9375 5.375 C-1.9584375 5.684375 -1.9584375 5.684375 -3 6 C-3.33 6.66 -3.66 7.32 -4 8 C-4 4 -4 4 -2 1.75 C-1.01 0.88375 -1.01 0.88375 0 0 Z " fill="#B47A55" transform="translate(80,56)"/>
<path d="M0 0 C2.12508244 3.18762365 2.5020163 5.26512223 3 9 C2.01 9 1.02 9 0 9 C0 6.03 0 3.06 0 0 Z " fill="#F6C7A1" transform="translate(62,47)"/>
<path d="M0 0 C0.33 0.66 0.66 1.32 1 2 C2.32 2 3.64 2 5 2 C5 2.99 5 3.98 5 5 C5.66 5.33 6.32 5.66 7 6 C6.38125 5.814375 5.7625 5.62875 5.125 5.4375 C2.95839822 4.76313824 2.95839822 4.76313824 1 6 C-0.0625 4.125 -0.0625 4.125 -1 2 C-0.67 1.34 -0.34 0.68 0 0 Z " fill="#D39F7B" transform="translate(64,40)"/>
<path d="M0 0 C0.33 0.99 0.66 1.98 1 3 C-1.97 2.67 -4.94 2.34 -8 2 C-4.77208445 -0.1519437 -3.71599191 -0.20086443 0 0 Z " fill="#8A3F12" transform="translate(59,15)"/>
<path d="M0 0 C1.32 0.33 2.64 0.66 4 1 C4 2.65 4 4.3 4 6 C3.67 5.34 3.34 4.68 3 4 C2.34 4 1.68 4 1 4 C0.67 4.66 0.34 5.32 0 6 C0 4.02 0 2.04 0 0 Z " fill="#B1A549" transform="translate(40,90)"/>
<path d="M0 0 C0.66 0 1.32 0 2 0 C5 4.38461538 5 4.38461538 5 7 C3 6 1 5 -1 4 C-0.67 2.68 -0.34 1.36 0 0 Z " fill="#F9EFE0" transform="translate(50,57)"/>
<path d="M0 0 C1.8871875 0.0309375 1.8871875 0.0309375 3.8125 0.0625 C3.8125 0.3925 3.8125 0.7225 3.8125 1.0625 C-0.3071377 2.35493536 -3.85581683 3.32502625 -8.1875 3.0625 C-6.45706736 -0.39836529 -3.47359009 -0.0569441 0 0 Z " fill="#5B2910" transform="translate(73.1875,37.9375)"/>
<path d="M0 0 C2.31 0.66 4.62 1.32 7 2 C5 4 5 4 2.375 4.125 C1.59125 4.08375 0.8075 4.0425 0 4 C-0.33 3.01 -0.66 2.02 -1 1 C-0.67 0.67 -0.34 0.34 0 0 Z " fill="#6D2E09" transform="translate(47,17)"/>
<path d="M0 0 C2.97 0.495 2.97 0.495 6 1 C0.85714286 5.42857143 0.85714286 5.42857143 -3 6 C-2.01 4.02 -1.02 2.04 0 0 Z " fill="#672502" transform="translate(81,13)"/>
<path d="M0 0 C0.33 0.99 0.66 1.98 1 3 C-4.75 4.125 -4.75 4.125 -7 3 C-3.375 0 -3.375 0 0 0 Z " fill="#5F2D14" transform="translate(60,9)"/>
<path d="M0 0 C-0.33 0.99 -0.66 1.98 -1 3 C-4.0625 4.1875 -4.0625 4.1875 -7 5 C-7.33 4.01 -7.66 3.02 -8 2 C-5.09399739 0.74335022 -3.20395416 0 0 0 Z " fill="#79432F" transform="translate(67,6)"/>
<path d="M0 0 C2.00720923 0.28674418 4.0085944 0.61866701 6 1 C3.53721199 3.46278801 1.29323018 3.99771255 -2 5 C-1.125 1.125 -1.125 1.125 0 0 Z " fill="#F6EBE3" transform="translate(58,5)"/>
<path d="M0 0 C0.66 0 1.32 0 2 0 C2 0.66 2 1.32 2 2 C2.99 2.33 3.98 2.66 5 3 C4.67 4.32 4.34 5.64 4 7 C3.67 6.34 3.34 5.68 3 5 C2.34 5 1.68 5 1 5 C0.67 3.35 0.34 1.7 0 0 Z " fill="#867725" transform="translate(100,123)"/>
<path d="M0 0 C0.99 0 1.98 0 3 0 C3 0.66 3 1.32 3 2 C2.34 2 1.68 2 1 2 C1.66 3.32 2.32 4.64 3 6 C1.68 6 0.36 6 -1 6 C-1.042721 4.33388095 -1.04063832 2.66617115 -1 1 C-0.67 0.67 -0.34 0.34 0 0 Z " fill="#B5AC44" transform="translate(113,81)"/>
<path d="M0 0 C1.65 0 3.3 0 5 0 C5.33 1.65 5.66 3.3 6 5 C1.125 2.25 1.125 2.25 0 0 Z " fill="#FCEFE1" transform="translate(18,79)"/>
<path d="M0 0 C-3.96 1.98 -3.96 1.98 -8 4 C-8.33 3.01 -8.66 2.02 -9 1 C-5.19495213 -0.79682816 -4.29399165 -1.07349791 0 0 Z " fill="#EBE0D8" transform="translate(56,11)"/>
<path d="M0 0 C1.98 1.65 3.96 3.3 6 5 C5.01 5.66 4.02 6.32 3 7 C3 6.34 3 5.68 3 5 C2.34 5 1.68 5 1 5 C1 4.34 1 3.68 1 3 C0.34 2.67 -0.32 2.34 -1 2 C-0.67 1.34 -0.34 0.68 0 0 Z " fill="#6C371B" transform="translate(79,8)"/>
<path d="M0 0 C0.99 0.33 1.98 0.66 3 1 C-2.625 6 -2.625 6 -6 6 C-6 5.34 -6 4.68 -6 4 C-4.7934375 3.566875 -4.7934375 3.566875 -3.5625 3.125 C-0.8673532 2.26737432 -0.8673532 2.26737432 0 0 Z " fill="#7D3513" transform="translate(67,6)"/>
<path d="M0 0 C0.33 0 0.66 0 1 0 C1 2.97 1 5.94 1 9 C-0.5625 7.25 -0.5625 7.25 -2 5 C-1.75203633 2.83031791 -1.55766393 1.55766393 0 0 Z " fill="#988D30" transform="translate(35,127)"/>
<path d="M0 0 C3 4 3 4 3 6 C2.01 6.495 2.01 6.495 1 7 C0.34 7.99 -0.32 8.98 -1 10 C-0.67 6.7 -0.34 3.4 0 0 Z " fill="#B3A664" transform="translate(82,92)"/>
<path d="M0 0 C0.33 0 0.66 0 1 0 C1 1.98 1 3.96 1 6 C-0.32 6.33 -1.64 6.66 -3 7 C-2.67 5.35 -2.34 3.7 -2 2 C-1.34 2 -0.68 2 0 2 C0 1.34 0 0.68 0 0 Z " fill="#B97D51" transform="translate(19,88)"/>
<path d="M0 0 C0.33 0 0.66 0 1 0 C1 1.65 1 3.3 1 5 C1.99 5.33 2.98 5.66 4 6 C3.67 6.66 3.34 7.32 3 8 C1.68 8 0.36 8 -1 8 C-0.67 5.36 -0.34 2.72 0 0 Z " fill="#D5CFBA" transform="translate(62,80)"/>
</svg>
