<svg width="20" height="20" viewBox="0 0 20 20" fill="none" xmlns="http://www.w3.org/2000/svg">
<g id="settings">
<path id="Vector" d="M16.194 10.8167C16.2273 10.55 16.2523 10.2834 16.2523 10C16.2523 9.71669 16.2273 9.45002 16.194 9.18335L17.9523 7.80835C18.1106 7.68335 18.1523 7.45835 18.0523 7.27502L16.3856 4.39169C16.3106 4.25835 16.169 4.18335 16.019 4.18335C15.969 4.18335 15.919 4.19169 15.8773 4.20835L13.8023 5.04169C13.369 4.70835 12.9023 4.43335 12.394 4.22502L12.0773 2.01669C12.0523 1.81669 11.8773 1.66669 11.669 1.66669H8.33564C8.12731 1.66669 7.95231 1.81669 7.92731 2.01669L7.61064 4.22502C7.10231 4.43335 6.63564 4.71669 6.20231 5.04169L4.12731 4.20835C4.07731 4.19169 4.02731 4.18335 3.97731 4.18335C3.83564 4.18335 3.69397 4.25835 3.61897 4.39169L1.95231 7.27502C1.84397 7.45835 1.89397 7.68335 2.05231 7.80835L3.81064 9.18335C3.77731 9.45002 3.75231 9.72502 3.75231 10C3.75231 10.275 3.77731 10.55 3.81064 10.8167L2.05231 12.1917C1.89397 12.3167 1.85231 12.5417 1.95231 12.725L3.61897 15.6084C3.69397 15.7417 3.83564 15.8167 3.98564 15.8167C4.03564 15.8167 4.08564 15.8084 4.12731 15.7917L6.20231 14.9584C6.63564 15.2917 7.10231 15.5667 7.61064 15.775L7.92731 17.9834C7.95231 18.1834 8.12731 18.3334 8.33564 18.3334H11.669C11.8773 18.3334 12.0523 18.1834 12.0773 17.9834L12.394 15.775C12.9023 15.5667 13.369 15.2834 13.8023 14.9584L15.8773 15.7917C15.9273 15.8084 15.9773 15.8167 16.0273 15.8167C16.169 15.8167 16.3106 15.7417 16.3856 15.6084L18.0523 12.725C18.1523 12.5417 18.1106 12.3167 17.9523 12.1917L16.194 10.8167ZM14.544 9.39169C14.5773 9.65002 14.5856 9.82502 14.5856 10C14.5856 10.175 14.569 10.3584 14.544 10.6084L14.4273 11.55L15.169 12.1334L16.069 12.8334L15.4856 13.8417L14.4273 13.4167L13.5606 13.0667L12.8106 13.6334C12.4523 13.9 12.1106 14.1 11.769 14.2417L10.8856 14.6L10.7523 15.5417L10.5856 16.6667H9.41897L9.12731 14.6L8.24397 14.2417C7.88564 14.0917 7.55231 13.9 7.21897 13.65L6.46064 13.0667L5.57731 13.425L4.51897 13.85L3.93564 12.8417L4.83564 12.1417L5.57731 11.5584L5.46064 10.6167C5.43564 10.3584 5.41897 10.1667 5.41897 10C5.41897 9.83335 5.43564 9.64169 5.46064 9.39169L5.57731 8.45002L4.83564 7.86669L3.93564 7.16669L4.51897 6.15835L5.57731 6.58335L6.44397 6.93335L7.19397 6.36669C7.55231 6.10002 7.89397 5.90002 8.23564 5.75835L9.11897 5.40002L9.25231 4.45835L9.41897 3.33335H10.5773L10.869 5.40002L11.7523 5.75835C12.1106 5.90835 12.444 6.10002 12.7773 6.35002L13.5356 6.93335L14.419 6.57502L15.4773 6.15002L16.0606 7.15835L15.169 7.86669L14.4273 8.45002L14.544 9.39169ZM10.0023 6.66669C8.16064 6.66669 6.66897 8.15835 6.66897 10C6.66897 11.8417 8.16064 13.3334 10.0023 13.3334C11.844 13.3334 13.3356 11.8417 13.3356 10C13.3356 8.15835 11.844 6.66669 10.0023 6.66669ZM10.0023 11.6667C9.08564 11.6667 8.33564 10.9167 8.33564 10C8.33564 9.08335 9.08564 8.33335 10.0023 8.33335C10.919 8.33335 11.669 9.08335 11.669 10C11.669 10.9167 10.919 11.6667 10.0023 11.6667Z" fill="#44546F"/>
</g>
</svg>
