<svg width="20" height="20" viewBox="0 0 20 20" fill="none" xmlns="http://www.w3.org/2000/svg">
<g id="beenhere">
<path id="Vector" d="M15.8333 0.833344H4.16667C3.25 0.833344 2.50833 1.58334 2.50833 2.50001L2.5 13.275C2.5 13.85 2.79167 14.3583 3.23333 14.6583L10 19.1667L16.7583 14.6583C17.2 14.3583 17.4917 13.85 17.4917 13.275L17.5 2.50001C17.5 1.58334 16.75 0.833344 15.8333 0.833344ZM10 17.1667L4.16667 13.2833V2.50001H15.8333V13.275L10 17.1667ZM8.325 10.9833L6.175 8.82501L5 10L8.33333 13.3333L15 6.66668L13.8167 5.48334L8.325 10.9833Z" fill="#44546F"/>
</g>
</svg>
