<?xml version="1.0" standalone="no"?>
<!DOCTYPE svg PUBLIC "-//W3C//DTD SVG 20010904//EN"
 "http://www.w3.org/TR/2001/REC-SVG-20010904/DTD/svg10.dtd">
<svg version="1.0" xmlns="http://www.w3.org/2000/svg"
 width="512.000000pt" height="512.000000pt" viewBox="0 0 512.000000 512.000000"
 preserveAspectRatio="xMidYMid meet">

<g transform="translate(0.000000,512.000000) scale(0.100000,-0.100000)"
fill="#000000" stroke="none">
<path d="M1000 4990 l0 -130 75 0 c41 0 75 -4 75 -8 0 -5 -102 -278 -227 -608
l-227 -599 0 -85 c1 -126 42 -262 115 -388 48 -81 199 -230 284 -280 39 -22
113 -55 165 -73 82 -28 112 -33 225 -37 148 -5 252 14 368 67 124 55 283 185
334 271 9 17 20 30 24 30 4 0 17 -15 29 -34 11 -19 59 -71 106 -115 68 -64
106 -91 187 -131 146 -72 204 -85 372 -85 115 0 154 4 218 23 177 51 344 167
455 317 l22 30 22 -30 c44 -60 134 -148 193 -190 152 -108 281 -149 470 -150
72 0 151 4 178 9 l47 8 0 -661 0 -661 -300 0 -300 0 -2 518 -3 517 -847 3
-848 2 0 -130 0 -130 715 0 715 0 0 -305 0 -305 -625 0 -625 0 0 -130 0 -130
625 0 624 0 3 -87 3 -88 563 -3 562 -2 0 856 0 856 81 76 c92 86 146 160 196
270 36 77 73 226 73 295 0 25 -78 249 -230 662 -127 343 -230 627 -230 630 0
3 36 5 80 5 l80 0 0 130 0 130 -1910 0 -1910 0 0 -130z m1235 -162 c-3 -18
-41 -316 -85 -663 -53 -422 -86 -649 -99 -687 -112 -324 -476 -469 -791 -316
-126 61 -245 208 -285 353 l-17 60 232 620 c128 341 237 630 241 643 l9 22
400 0 401 0 -6 -32z m1157 -583 c42 -335 77 -636 77 -669 3 -238 -188 -474
-430 -531 -312 -73 -626 130 -685 445 -15 76 -14 79 66 718 44 352 80 643 80
647 0 3 183 4 407 3 l407 -3 78 -610z m1221 -25 l239 -635 -11 -55 c-29 -146
-161 -309 -302 -374 -172 -79 -348 -75 -511 11 -79 41 -173 128 -214 198 -64
110 -70 142 -154 816 -44 351 -80 648 -80 659 0 20 4 20 397 18 l397 -3 239
-635z"/>
<path d="M1260 3600 l0 -130 260 0 260 0 0 130 0 130 -260 0 -260 0 0 -130z"/>
<path d="M2650 3600 l0 -130 260 0 260 0 0 130 0 130 -260 0 -260 0 0 -130z"/>
<path d="M4040 3600 l0 -130 260 0 260 0 0 130 0 130 -260 0 -260 0 0 -130z"/>
<path d="M1023 2576 c-60 -19 -107 -51 -152 -103 l-40 -45 -83 -2 c-100 -2
-160 -29 -227 -101 -80 -87 -81 -91 -81 -427 l0 -296 -52 28 c-79 43 -161 60
-282 60 l-106 0 0 -583 c0 -549 1 -588 20 -661 11 -43 34 -105 52 -139 47 -88
156 -194 246 -239 135 -68 147 -69 802 -66 l585 3 66 26 c100 39 157 76 230
148 73 73 138 192 158 289 7 36 11 302 11 810 0 855 5 793 -81 887 -68 74
-127 99 -232 101 l-87 1 -26 34 c-31 42 -55 62 -119 97 -44 24 -61 27 -141 27
l-90 0 -27 37 c-74 104 -221 152 -344 114z m125 -202 l22 -15 0 -480 0 -479
135 0 135 0 2 407 3 408 27 9 c22 8 32 6 48 -9 19 -18 20 -29 20 -417 l0 -398
130 0 130 0 0 315 c0 302 1 316 20 335 25 25 45 25 70 0 20 -20 20 -29 18
-788 -3 -762 -3 -767 -25 -814 -30 -66 -96 -133 -162 -165 l-56 -28 -580 0
-580 0 -56 28 c-66 32 -132 99 -162 165 -21 46 -22 60 -25 495 -2 310 0 447 8
447 25 0 102 -87 133 -149 l32 -65 3 -203 3 -203 130 0 129 0 0 720 0 720 25
12 c19 9 29 8 50 -6 l25 -16 0 -400 0 -400 135 0 135 0 0 479 0 480 22 15 c12
9 25 16 28 16 3 0 16 -7 28 -16z"/>
<path d="M1490 1114 c-239 -51 -435 -272 -443 -499 l-2 -50 127 -3 126 -3 7
43 c21 131 115 231 243 258 l52 12 0 129 c0 148 9 139 -110 113z"/>
</g>
</svg>
