<svg width="44" height="45" viewBox="0 0 44 45" fill="none" xmlns="http://www.w3.org/2000/svg">
<g clip-path="url(#clip0_410_376)">
<path fill-rule="evenodd" clip-rule="evenodd" d="M31.1334 4.12012C32.5784 4.12012 33.9642 4.69332 34.986 5.71362C36.0078 6.73392 36.5818 8.11774 36.5818 9.56067V38.5769C36.5816 38.9185 36.4848 39.2531 36.3025 39.5421C36.1203 39.8312 35.86 40.0629 35.5516 40.2107C35.2432 40.3585 34.8993 40.4164 34.5594 40.3776C34.2196 40.3388 33.8976 40.205 33.6306 39.9915L30.2253 37.2712L26.82 39.9915C26.4712 40.2706 26.0315 40.4114 25.5851 40.3869C25.1388 40.3625 24.7171 40.1746 24.4009 39.8591L22.0526 37.5142L19.7043 39.8591C19.3883 40.1748 18.9668 40.3631 18.5205 40.3879C18.0741 40.4126 17.6343 40.2721 17.2852 39.9933L13.88 37.2712L10.4747 39.9915C10.2077 40.205 9.88568 40.3388 9.54583 40.3776C9.20598 40.4164 8.86206 40.3585 8.55368 40.2107C8.2453 40.0629 7.98499 39.8312 7.80273 39.5421C7.62046 39.2531 7.52365 38.9185 7.52344 38.5769V9.56067C7.52344 8.11774 8.09747 6.73392 9.11925 5.71362C10.141 4.69332 11.5269 4.12012 12.9719 4.12012H31.1334ZM22.0526 22.2553H16.6042C16.1225 22.2553 15.6606 22.4464 15.32 22.7865C14.9794 23.1266 14.788 23.5878 14.788 24.0688C14.788 24.5498 14.9794 25.0111 15.32 25.3512C15.6606 25.6913 16.1225 25.8823 16.6042 25.8823H22.0526C22.5343 25.8823 22.9962 25.6913 23.3368 25.3512C23.6774 25.0111 23.8688 24.5498 23.8688 24.0688C23.8688 23.5878 23.6774 23.1266 23.3368 22.7865C22.9962 22.4464 22.5343 22.2553 22.0526 22.2553ZM27.5011 15.0012H16.6042C16.1413 15.0017 15.696 15.1787 15.3595 15.496C15.0229 15.8133 14.8203 16.247 14.7932 16.7085C14.766 17.1699 14.9164 17.6243 15.2135 17.9787C15.5106 18.3332 15.932 18.561 16.3917 18.6156L16.6042 18.6283H27.5011C27.964 18.6277 28.4092 18.4507 28.7458 18.1334C29.0824 17.8161 29.285 17.3825 29.3121 16.921C29.3392 16.4596 29.1889 16.0052 28.8918 15.6508C28.5947 15.2963 28.1732 15.0685 27.7136 15.0139L27.5011 15.0012Z" fill="#DA2128"/>
</g>
<defs>
<clipPath id="clip0_410_376">
<rect width="43.5876" height="43.5244" fill="white" transform="translate(0.258789 0.493164)"/>
</clipPath>
</defs>
</svg>
